<?xml version="1.0" encoding="UTF-8" standalone="no"?>
<!DOCTYPE svg PUBLIC "-//W3C//DTD SVG 1.1//EN" "http://www.w3.org/Graphics/SVG/1.1/DTD/svg11.dtd">
<svg xmlns="http://www.w3.org/2000/svg" version="1.1" viewBox="0.00 0.00 883.00 655.00" width="883.00" height="655.00">
<g stroke-width="2.00" fill="none" stroke-linecap="butt">
<path stroke="#8b96ae" vector-effect="non-scaling-stroke" d="
  M 426.61 201.27
  A 7.93 7.93 0.0 0 0 418.68 193.34
  A 7.93 7.93 0.0 0 0 410.75 201.27
  A 7.93 7.93 0.0 0 0 418.68 209.20
  A 7.93 7.93 0.0 0 0 426.61 201.27"
/>
<path stroke="#8b96ae" vector-effect="non-scaling-stroke" d="
  M 478.72 204.55
  A 7.26 7.26 0.0 0 0 471.46 197.29
  A 7.26 7.26 0.0 0 0 464.20 204.55
  A 7.26 7.26 0.0 0 0 471.46 211.81
  A 7.26 7.26 0.0 0 0 478.72 204.55"
/>
<path stroke="#8b96ae" vector-effect="non-scaling-stroke" d="
  M 411.70 246.29
  Q 419.27 243.10 425.50 246.32
  Q 426.04 246.60 426.11 246.00
  L 430.49 211.27
  A 0.26 0.26 0.0 0 0 430.13 211.00
  Q 418.89 215.74 407.61 210.97
  A 0.48 0.48 0.0 0 0 406.94 211.47
  L 411.23 246.01
  A 0.35 0.34 75.1 0 0 411.70 246.29"
/>
<path stroke="#8b96ae" vector-effect="non-scaling-stroke" d="
  M 473.35 243.78
  C 474.66 244.11 475.55 245.13 476.37 246.12
  A 0.21 0.21 0.0 0 0 476.74 246.01
  L 480.42 215.46
  Q 480.74 212.84 479.50 215.17
  Q 478.30 217.41 475.76 219.53
  C 470.27 224.09 465.52 218.85 462.93 214.42
  Q 462.42 213.54 462.46 214.55
  C 462.66 219.91 463.81 225.13 464.31 230.37
  Q 465.01 237.77 466.26 246.12
  Q 466.40 247.05 466.87 246.24
  Q 468.93 242.69 473.35 243.78"
/>
<path stroke="#8b96ae" vector-effect="non-scaling-stroke" d="
  M 401.21 255.36
  A 6.59 6.59 0.0 0 0 394.62 248.77
  A 6.59 6.59 0.0 0 0 388.03 255.36
  A 6.59 6.59 0.0 0 0 394.62 261.95
  A 6.59 6.59 0.0 0 0 401.21 255.36"
/>
<path stroke="#8b96ae" vector-effect="non-scaling-stroke" d="
  M 414.64 311.75
  A 0.39 0.39 0.0 0 0 415.03 312.11
  L 422.28 312.14
  A 0.39 0.39 0.0 0 0 422.67 311.78
  L 427.22 250.66
  A 0.39 0.39 0.0 0 0 426.83 250.24
  L 410.53 250.26
  A 0.39 0.39 0.0 0 0 410.14 250.68
  L 414.64 311.75"
/>
<path stroke="#8b96ae" vector-effect="non-scaling-stroke" d="
  M 466.11 269.62
  Q 467.57 285.29 468.98 300.79
  Q 469.49 306.39 470.16 311.27
  Q 470.23 311.79 470.70 312.02
  Q 471.53 312.42 472.28 311.98
  Q 472.79 311.68 472.85 311.09
  L 478.70 250.65
  A 0.37 0.36 -87.8 0 0 478.34 250.25
  L 464.98 250.26
  Q 464.39 250.26 464.41 250.84
  C 464.57 257.27 465.53 263.36 466.11 269.62"
/>
<path stroke="#8b96ae" vector-effect="non-scaling-stroke" d="
  M 498.13 263.91
  A 5.92 5.92 0.0 0 0 492.21 257.99
  A 5.92 5.92 0.0 0 0 486.29 263.91
  A 5.92 5.92 0.0 0 0 492.21 269.83
  A 5.92 5.92 0.0 0 0 498.13 263.91"
/>
<path stroke="#8b96ae" vector-effect="non-scaling-stroke" d="
  M 401.83 262.96
  C 399.65 264.60 395.81 264.54 393.01 264.46
  Q 389.74 264.37 387.34 262.99
  A 0.29 0.29 0.0 0 0 386.90 263.26
  L 387.85 282.01
  Q 387.88 282.66 388.52 282.52
  Q 394.32 281.28 400.90 282.48
  A 0.32 0.31 6.5 0 0 401.27 282.19
  L 402.39 263.26
  Q 402.44 262.50 401.83 262.96"
/>
<path stroke="#8b96ae" vector-effect="non-scaling-stroke" d="
  M 445.39 273.29
  A 5.28 5.28 0.0 0 0 440.11 268.01
  A 5.28 5.28 0.0 0 0 434.83 273.29
  A 5.28 5.28 0.0 0 0 440.11 278.57
  A 5.28 5.28 0.0 0 0 445.39 273.29"
/>
<path stroke="#8b96ae" vector-effect="non-scaling-stroke" d="
  M 485.81 271.60
  A 0.24 0.24 0.0 0 0 485.50 271.86
  Q 486.63 280.14 486.81 288.96
  A 0.72 0.71 89.6 0 0 487.52 289.67
  L 496.67 289.76
  Q 497.38 289.77 497.43 289.07
  L 498.79 272.13
  Q 498.83 271.70 498.41 271.78
  Q 491.41 273.20 485.81 271.60"
/>
<path stroke="#8b96ae" vector-effect="non-scaling-stroke" d="
  M 459.17 282.64
  A 4.58 4.58 0.0 0 0 454.59 278.06
  A 4.58 4.58 0.0 0 0 450.01 282.64
  A 4.58 4.58 0.0 0 0 454.59 287.22
  A 4.58 4.58 0.0 0 0 459.17 282.64"
/>
<path stroke="#8b96ae" vector-effect="non-scaling-stroke" d="
  M 436.05 293.96
  A 0.31 0.31 0.0 0 0 436.35 294.24
  L 443.89 294.24
  A 0.31 0.31 0.0 0 0 444.19 293.96
  L 445.36 280.56
  A 0.31 0.31 0.0 0 0 445.05 280.22
  L 435.19 280.20
  A 0.31 0.31 0.0 0 0 434.88 280.54
  L 436.05 293.96"
/>
<path stroke="#8b96ae" vector-effect="non-scaling-stroke" d="
  M 390.62 311.71
  A 0.45 0.45 0.0 0 0 391.07 312.12
  L 398.17 312.07
  A 0.45 0.45 0.0 0 0 398.61 311.67
  L 401.17 286.30
  A 0.45 0.45 0.0 0 0 400.72 285.81
  L 388.55 285.77
  A 0.45 0.45 0.0 0 0 388.10 286.27
  L 390.62 311.71"
/>
<path stroke="#8b96ae" vector-effect="non-scaling-stroke" d="
  M 458.51 288.59
  A 0.32 0.32 0.0 0 0 458.19 288.25
  L 450.93 288.24
  A 0.32 0.32 0.0 0 0 450.61 288.59
  L 451.45 298.37
  A 0.32 0.32 0.0 0 0 451.78 298.67
  L 457.60 298.57
  A 0.32 0.32 0.0 0 0 457.92 298.27
  L 458.51 288.59"
/>
<path stroke="#8b96ae" vector-effect="non-scaling-stroke" d="
  M 488.24 311.43
  A 0.71 0.71 0.0 0 0 488.95 312.09
  L 495.54 312.12
  A 0.71 0.71 0.0 0 0 496.25 311.45
  L 497.42 293.12
  A 0.71 0.71 0.0 0 0 496.71 292.36
  L 487.60 292.39
  A 0.71 0.71 0.0 0 0 486.90 293.15
  L 488.24 311.43"
/>
<path stroke="#8b96ae" vector-effect="non-scaling-stroke" d="
  M 444.32 296.93
  A 0.52 0.52 0.0 0 0 443.80 296.38
  L 436.49 296.38
  A 0.52 0.52 0.0 0 0 435.97 296.93
  L 436.77 311.60
  A 0.52 0.52 0.0 0 0 437.29 312.09
  L 442.90 312.06
  A 0.52 0.52 0.0 0 0 443.42 311.57
  L 444.32 296.93"
/>
<path stroke="#8b96ae" vector-effect="non-scaling-stroke" d="
  M 452.29 311.58
  A 0.50 0.50 0.0 0 0 452.79 312.05
  L 456.41 312.03
  A 0.50 0.50 0.0 0 0 456.91 311.57
  L 457.77 300.81
  A 0.50 0.50 0.0 0 0 457.27 300.27
  L 452.02 300.29
  A 0.50 0.50 0.0 0 0 451.52 300.82
  L 452.29 311.58"
/>
<path stroke="#9cafd2" vector-effect="non-scaling-stroke" d="
  M 489.13 354.96
  L 489.53 334.99
  A 0.37 0.36 85.0 0 0 489.10 334.62
  Q 484.25 335.58 479.38 335.63
  A 0.77 0.76 -89.6 0 0 478.62 336.39
  L 478.62 336.66
  A 1.29 1.29 0.0 0 0 479.67 337.93
  L 482.63 338.50
  Q 484.15 338.79 484.17 340.34
  Q 484.53 362.57 484.01 385.00
  C 483.95 387.70 481.45 387.80 479.46 388.18
  Q 478.73 388.31 478.71 389.05
  L 478.69 389.96
  Q 478.67 390.79 479.50 390.76
  Q 486.37 390.50 493.12 390.74
  Q 493.75 390.77 494.30 390.46
  Q 495.05 390.04 494.72 389.04
  A 1.28 1.27 -0.8 0 0 493.87 388.22
  L 490.89 387.33
  A 2.19 2.19 0.0 0 1 489.32 385.24
  Q 489.20 374.24 489.21 363.81
  C 489.22 355.80 497.48 354.58 503.85 355.39
  C 508.96 356.03 510.75 359.89 510.73 364.55
  Q 510.68 377.23 510.59 389.85
  Q 510.58 391.01 511.74 391.02
  L 520.41 391.11
  Q 521.02 391.12 521.30 390.58
  Q 521.57 390.04 521.43 389.41
  Q 521.26 388.68 520.53 388.54
  C 518.67 388.19 516.43 388.09 516.00 385.75
  Q 515.54 383.32 515.59 380.94
  Q 515.80 370.71 515.82 361.91
  C 515.83 352.62 507.87 350.87 500.44 351.10
  Q 494.20 351.30 489.76 355.24
  A 0.38 0.37 -20.7 0 1 489.13 354.96"
/>
<path stroke="#8b96ae" vector-effect="non-scaling-stroke" d="
  M 316.93 342.34
  Q 317.43 364.66 316.71 385.44
  Q 316.64 387.39 313.16 387.78
  Q 311.93 387.91 311.82 389.13
  Q 311.81 389.28 311.79 389.43
  Q 311.66 390.81 313.04 390.74
  Q 319.71 390.45 326.62 390.77
  Q 327.25 390.80 327.39 390.18
  Q 327.54 389.48 327.44 388.72
  A 1.03 1.03 0.0 0 0 326.51 387.83
  C 324.78 387.66 322.66 387.52 322.59 385.21
  Q 321.97 362.71 322.34 342.51
  A 0.76 0.76 0.0 0 1 323.10 341.76
  Q 327.92 341.80 333.21 342.06
  C 335.78 342.18 336.23 345.60 336.45 347.56
  Q 336.55 348.50 337.50 348.49
  L 338.68 348.48
  A 0.88 0.88 0.0 0 0 339.55 347.57
  L 339.19 338.25
  A 0.40 0.40 0.0 0 0 338.78 337.86
  Q 318.69 338.49 300.77 337.86
  Q 300.11 337.84 300.09 338.50
  L 299.75 347.39
  Q 299.72 348.08 300.33 348.39
  Q 300.96 348.71 301.66 348.52
  A 1.56 1.55 89.4 0 0 302.76 347.39
  L 303.73 343.47
  A 1.90 1.89 5.8 0 1 305.51 342.03
  L 316.25 341.69
  Q 316.92 341.67 316.93 342.34"
/>
<path stroke="#98aacb" vector-effect="non-scaling-stroke" d="
  M 459.52 355.93
  Q 459.64 369.37 459.17 383.51
  C 458.86 392.78 468.23 392.12 474.26 391.12
  Q 474.74 391.04 474.76 390.55
  L 474.91 387.28
  A 0.37 0.36 -5.8 0 0 474.45 386.91
  C 470.40 388.01 464.21 388.73 464.16 382.47
  Q 464.06 368.36 464.21 356.19
  Q 464.22 355.25 465.16 355.27
  L 474.40 355.44
  A 0.95 0.94 -86.0 0 0 475.36 354.60
  L 475.60 352.41
  A 0.55 0.55 0.0 0 0 475.04 351.80
  L 464.71 352.20
  Q 464.21 352.22 464.21 351.71
  L 464.35 341.66
  A 0.45 0.44 80.9 0 0 463.76 341.23
  L 459.68 342.61
  Q 459.33 342.73 459.34 343.09
  L 459.38 351.64
  Q 459.38 352.16 458.86 352.13
  L 455.26 351.96
  A 0.54 0.53 -88.4 0 0 454.71 352.49
  L 454.66 354.67
  Q 454.65 355.32 455.30 355.31
  L 458.83 355.25
  Q 459.51 355.24 459.52 355.93"
/>
<path stroke="#92a0bd" vector-effect="non-scaling-stroke" d="
  M 406.96 356.09
  Q 406.23 355.46 407.19 355.58
  L 412.61 356.26
  A 1.26 1.25 -83.9 0 0 414.02 355.12
  L 414.31 351.75
  Q 414.36 351.14 413.75 351.09
  Q 412.14 350.95 411.00 351.87
  Q 410.59 352.20 410.07 352.23
  Q 407.42 352.41 404.81 352.02
  C 396.62 350.80 382.32 349.04 379.06 359.37
  C 377.45 364.45 377.26 372.68 382.37 376.04
  Q 382.88 376.37 382.77 376.97
  C 382.17 380.31 381.75 383.28 383.52 386.34
  A 0.71 0.71 0.0 0 1 383.21 387.34
  C 377.95 389.84 375.58 394.57 377.05 400.05
  C 379.44 409.00 392.23 409.17 399.94 408.27
  C 407.00 407.45 413.02 404.14 412.95 396.08
  C 412.89 387.70 407.27 385.12 400.08 385.38
  Q 395.21 385.57 390.24 385.26
  Q 387.40 385.09 386.68 382.34
  Q 386.49 381.64 386.30 380.91
  Q 385.57 378.11 388.37 378.85
  Q 394.01 380.34 400.52 378.82
  Q 408.89 376.87 410.26 368.94
  C 411.05 364.42 410.64 359.23 406.96 356.09"
/>
<path stroke="#a2b9e0" vector-effect="non-scaling-stroke" d="
  M 572.48 356.18
  Q 572.38 354.00 572.84 352.10
  Q 573.00 351.45 572.33 351.51
  L 562.42 352.35
  Q 561.79 352.40 561.74 353.03
  Q 561.70 353.55 561.86 354.04
  Q 562.07 354.66 562.72 354.73
  C 564.45 354.91 567.34 354.94 567.37 357.31
  Q 567.60 371.89 567.32 385.76
  A 1.82 1.82 0.0 0 1 565.83 387.51
  Q 563.96 387.84 562.41 388.53
  Q 561.41 388.98 561.67 390.02
  A 0.81 0.80 83.1 0 0 562.45 390.64
  L 576.92 390.66
  Q 577.82 390.66 577.92 389.77
  L 577.96 389.44
  Q 578.06 388.53 577.18 388.30
  L 573.28 387.30
  Q 572.55 387.11 572.51 386.36
  Q 572.01 376.03 572.42 365.63
  C 572.62 360.65 576.02 354.46 581.71 355.39
  A 0.84 0.84 0.0 0 1 582.38 356.00
  L 583.34 359.71
  Q 583.42 360.00 583.72 359.96
  L 585.28 359.77
  Q 585.78 359.71 585.76 359.21
  L 585.45 352.28
  A 0.72 0.72 0.0 0 0 584.94 351.62
  C 579.61 349.97 575.85 352.14 572.97 356.32
  Q 572.52 356.98 572.48 356.18"
/>
<path stroke="#8f9bb5" vector-effect="non-scaling-stroke" d="
  M 371.02 363.63
  Q 368.61 352.85 358.49 351.42
  C 350.02 350.21 341.18 352.02 338.29 361.28
  C 335.71 369.52 335.54 386.85 346.20 390.50
  C 353.95 393.15 366.44 392.47 369.89 382.89
  Q 373.24 373.60 371.02 363.63"
/>
<path stroke="#95a5c4" vector-effect="non-scaling-stroke" d="
  M 424.03 368.76
  C 432.43 368.27 441.13 368.68 449.54 368.77
  Q 450.15 368.77 450.19 368.17
  C 450.75 360.31 449.16 353.18 440.20 351.57
  Q 436.27 350.86 432.19 351.35
  C 419.41 352.88 417.79 364.71 418.50 375.37
  Q 418.92 381.77 422.07 386.02
  C 427.53 393.42 440.08 392.22 447.94 389.95
  A 1.18 1.17 82.2 0 0 448.79 388.82
  L 448.79 386.04
  Q 448.78 385.07 447.87 385.39
  Q 442.43 387.29 436.80 387.54
  C 425.65 388.02 422.89 378.50 423.44 369.36
  Q 423.47 368.79 424.03 368.76"
/>
<path stroke="#9fb4d9" vector-effect="non-scaling-stroke" d="
  M 531.35 368.80
  C 539.70 368.15 548.36 368.63 556.81 368.78
  Q 557.46 368.79 557.49 368.14
  Q 557.72 363.55 557.05 359.91
  C 556.22 355.39 551.88 352.19 547.35 351.51
  C 532.18 349.26 525.69 356.97 525.59 371.32
  C 525.51 381.69 528.96 390.82 540.67 391.52
  Q 547.98 391.95 555.23 389.93
  Q 556.11 389.69 556.13 388.76
  L 556.19 385.99
  A 0.68 0.68 0.0 0 0 555.28 385.33
  C 540.67 390.50 529.50 387.13 530.75 369.41
  Q 530.79 368.84 531.35 368.80"
/>
<path stroke="#8491a9" vector-effect="non-scaling-stroke" d="
  M 372.61 445.07
  C 371.75 449.82 363.83 450.25 361.95 446.01
  Q 360.79 443.40 359.82 446.08
  Q 359.08 448.14 361.22 449.31
  Q 365.39 451.58 369.92 450.15
  C 374.62 448.67 377.52 441.27 372.23 438.46
  C 369.68 437.11 362.42 435.01 362.97 431.19
  Q 363.35 428.55 366.39 428.03
  Q 371.13 427.21 371.77 431.30
  Q 371.86 431.88 372.43 431.75
  Q 373.25 431.55 373.54 430.74
  C 375.61 424.85 362.85 424.26 360.82 430.50
  C 359.71 433.91 362.61 436.78 365.45 437.98
  C 368.51 439.26 373.39 440.81 372.61 445.07"
/>
<path stroke="#8491a9" vector-effect="non-scaling-stroke" d="
  M 384.1902 450.9007
  A 9.20 7.59 95.3 0 0 392.5976 442.4411
  A 9.20 7.59 95.3 0 0 385.8898 432.5793
  A 9.20 7.59 95.3 0 0 377.4824 441.0389
  A 9.20 7.59 95.3 0 0 384.1902 450.9007"
/>
<path stroke="#8491a9" vector-effect="non-scaling-stroke" d="
  M 400.21 434.27
  Q 400.23 433.75 400.06 433.25
  Q 399.84 432.65 399.21 432.74
  L 396.70 433.11
  Q 395.00 433.36 396.35 434.43
  Q 396.94 434.90 397.66 434.90
  A 0.58 0.57 -0.0 0 1 398.24 435.47
  L 398.23 447.85
  A 0.86 0.86 0.0 0 1 397.50 448.70
  Q 396.79 448.80 396.29 449.25
  Q 395.12 450.31 396.70 450.30
  L 402.74 450.23
  A 0.48 0.48 0.0 0 0 403.22 449.75
  L 403.23 449.42
  Q 403.23 449.09 402.91 449.05
  L 401.23 448.82
  Q 400.50 448.72 400.50 447.98
  L 400.51 439.04
  Q 400.51 435.27 404.27 435.11
  Q 404.73 435.09 405.06 435.08
  Q 409.52 434.89 409.52 439.35
  L 409.52 447.93
  Q 409.52 448.64 408.83 448.82
  L 407.87 449.06
  Q 407.53 449.15 407.25 449.37
  Q 406.83 449.70 407.12 450.05
  A 0.54 0.51 69.1 0 0 407.52 450.24
  L 413.86 450.27
  A 0.59 0.59 0.0 0 0 414.45 449.63
  L 414.43 449.35
  A 0.30 0.29 -85.9 0 0 414.21 449.09
  L 412.39 448.63
  Q 411.83 448.48 411.83 447.90
  L 411.79 437.59
  Q 411.79 437.10 412.15 436.78
  C 414.98 434.28 419.45 433.47 420.54 438.25
  Q 420.98 440.21 420.72 447.82
  Q 420.69 448.44 420.14 448.71
  Q 419.48 449.05 418.76 449.34
  Q 418.38 449.50 418.37 449.88
  Q 418.35 450.28 418.75 450.28
  L 425.16 450.25
  A 0.47 0.47 0.0 0 0 425.63 449.82
  L 425.66 449.50
  A 0.45 0.45 0.0 0 0 425.28 449.02
  L 423.58 448.75
  Q 423.04 448.67 423.04 448.12
  C 423.00 443.06 424.89 430.34 415.05 433.01
  C 413.69 433.38 412.62 434.44 411.52 435.29
  Q 410.99 435.70 410.62 435.15
  Q 408.37 431.79 403.99 433.07
  C 402.83 433.41 401.90 434.21 400.80 434.68
  Q 400.18 434.95 400.21 434.27"
/>
<path stroke="#8491a9" vector-effect="non-scaling-stroke" d="
  M 434.8218 450.8378
  A 9.18 7.57 94.8 0 0 443.1335 442.3234
  A 9.18 7.57 94.8 0 0 436.3582 432.5422
  A 9.18 7.57 94.8 0 0 428.0465 441.0566
  A 9.18 7.57 94.8 0 0 434.8218 450.8378"
/>
<path stroke="#8b96ae" vector-effect="non-scaling-stroke" d="
  M 454.19 435.80
  L 454.38 436.53
  Q 454.62 437.47 455.49 437.04
  Q 456.63 436.46 456.68 435.03
  A 1.68 1.67 12.5 0 0 455.66 433.43
  C 452.58 432.11 447.44 432.31 446.24 436.15
  C 444.67 441.16 450.84 442.26 453.89 443.72
  C 458.61 445.97 451.57 452.31 447.34 446.86
  Q 445.96 445.08 445.52 447.30
  Q 445.16 449.16 447.22 449.89
  C 451.52 451.43 456.84 450.87 457.36 445.38
  Q 457.63 442.57 454.71 441.37
  Q 451.97 440.25 449.27 438.88
  C 447.57 438.01 447.53 435.89 449.34 435.10
  Q 451.47 434.18 453.20 434.74
  Q 453.99 435.00 454.19 435.80"
/>
<path stroke="#8491a9" vector-effect="non-scaling-stroke" d="
  M 495.02 434.96
  A 0.55 0.55 0.0 0 1 494.15 434.46
  Q 494.38 432.38 492.52 432.81
  Q 491.43 433.07 490.20 433.10
  Q 489.53 433.12 489.48 433.78
  Q 489.45 434.22 489.90 434.35
  Q 490.83 434.63 491.73 434.82
  A 0.66 0.65 -84.5 0 1 492.24 435.45
  L 492.26 447.90
  Q 492.26 448.59 491.60 448.79
  L 490.60 449.08
  Q 490.27 449.17 489.99 449.38
  Q 489.63 449.65 489.75 449.89
  Q 489.93 450.27 490.35 450.27
  Q 493.20 450.26 496.39 450.22
  Q 497.34 450.21 496.81 449.42
  Q 496.33 448.72 495.39 448.81
  Q 494.49 448.90 494.49 448.00
  L 494.51 437.54
  Q 494.51 437.00 494.93 436.66
  C 497.69 434.50 503.45 433.02 503.71 438.64
  Q 503.90 442.92 503.87 447.89
  A 0.84 0.84 0.0 0 1 503.31 448.68
  L 501.65 449.28
  Q 501.53 449.32 501.48 449.44
  Q 501.42 449.56 501.37 449.67
  Q 501.09 450.27 501.75 450.27
  L 508.14 450.24
  Q 508.51 450.24 508.49 449.86
  L 508.47 449.53
  A 0.52 0.52 0.0 0 0 507.93 449.05
  Q 507.22 449.07 506.64 448.70
  Q 506.11 448.35 506.12 447.64
  C 506.16 444.04 506.93 437.53 504.66 434.70
  C 501.95 431.32 497.98 432.82 495.02 434.96"
/>
<path stroke="#8491a9" vector-effect="non-scaling-stroke" d="
  M 517.4756 450.8281
  A 9.17 7.54 96.1 0 0 525.9473 442.5112
  A 9.17 7.54 96.1 0 0 519.4244 432.5919
  A 9.17 7.54 96.1 0 0 510.9527 440.9088
  A 9.17 7.54 96.1 0 0 517.4756 450.8281"
/>
<path stroke="#8b96ae" vector-effect="non-scaling-stroke" d="
  M 470.76 434.87
  A 0.48 0.47 -85.0 0 1 471.15 435.34
  C 471.10 439.12 470.35 445.09 472.40 448.32
  C 474.50 451.61 478.45 451.09 481.44 449.29
  A 0.99 0.99 0.0 0 1 482.58 449.38
  Q 484.30 450.84 486.67 450.01
  A 0.48 0.47 -9.4 0 0 487.00 449.56
  Q 486.99 449.27 486.82 449.05
  A 1.03 1.01 70.8 0 0 486.05 448.67
  Q 484.53 448.65 484.52 447.18
  Q 484.47 440.07 484.58 433.71
  Q 484.59 433.10 483.97 433.11
  L 480.50 433.15
  A 1.24 0.98 -66.3 0 0 479.67 433.59
  Q 479.55 433.73 479.56 433.91
  A 0.67 0.67 0.0 0 0 479.99 434.52
  Q 480.70 434.79 481.45 434.72
  Q 482.27 434.63 482.27 435.45
  L 482.24 444.82
  Q 482.22 448.47 478.57 448.49
  Q 477.94 448.50 477.30 448.50
  Q 473.49 448.53 473.50 444.71
  L 473.53 433.76
  Q 473.53 433.18 472.95 433.15
  Q 470.98 433.04 469.16 433.13
  Q 468.45 433.16 468.38 433.91
  Q 468.33 434.47 468.89 434.56
  L 470.76 434.87"
/>
<path stroke="#92a0bd" vector-effect="non-scaling-stroke" d="
  M 405.2730 363.4338
  A 8.42 8.42 0.0 0 0 396.9565 354.9116
  L 391.9169 354.8500
  A 8.42 8.42 0.0 0 0 383.3946 363.1665
  L 383.3470 367.0662
  A 8.42 8.42 0.0 0 0 391.6635 375.5884
  L 396.7031 375.6500
  A 8.42 8.42 0.0 0 0 405.2254 367.3335
  L 405.2730 363.4338"
/>
<path stroke="#92a0bd" vector-effect="non-scaling-stroke" d="
  M 407.81 394.57
  C 406.53 387.78 393.16 391.02 388.31 389.70
  C 386.34 389.16 384.17 390.42 383.07 391.96
  C 379.84 396.48 382.12 402.36 387.61 403.77
  C 394.56 405.57 409.93 405.81 407.81 394.57"
/>
<path stroke="#8f9bb5" vector-effect="non-scaling-stroke" d="
  M 350.08 355.39
  C 340.95 357.36 341.34 372.19 342.78 379.06
  C 343.75 383.72 346.74 387.16 351.54 387.68
  C 357.77 388.34 363.29 387.27 365.34 380.56
  C 367.10 374.80 368.13 359.52 360.54 356.24
  Q 355.74 354.17 350.08 355.39"
/>
<path stroke="#95a5c4" vector-effect="non-scaling-stroke" d="
  M 424.57 365.58
  L 444.97 365.40
  A 0.47 0.47 0.0 0 0 445.43 364.93
  L 445.42 363.58
  A 9.09 8.94 -0.5 0 0 436.25 354.72
  L 433.09 354.74
  A 9.09 8.94 -0.5 0 0 424.08 363.76
  L 424.09 365.11
  A 0.47 0.47 0.0 0 0 424.57 365.58"
/>
<path stroke="#9fb4d9" vector-effect="non-scaling-stroke" d="
  M 531.97 365.58
  L 552.13 365.40
  A 0.62 0.62 0.0 0 0 552.74 364.78
  L 552.73 363.60
  A 9.04 8.94 -0.5 0 0 543.61 354.74
  L 540.29 354.76
  A 9.04 8.94 -0.5 0 0 531.33 363.78
  L 531.34 364.96
  A 0.62 0.62 0.0 0 0 531.97 365.58"
/>
<path stroke="#8491a9" vector-effect="non-scaling-stroke" d="
  M 385.0200 449.1600
  A 7.41 5.06 90.0 0 0 390.0800 441.7500
  A 7.41 5.06 90.0 0 0 385.0200 434.3400
  A 7.41 5.06 90.0 0 0 379.9600 441.7500
  A 7.41 5.06 90.0 0 0 385.0200 449.1600"
/>
<path stroke="#8491a9" vector-effect="non-scaling-stroke" d="
  M 435.5358 449.1097
  A 7.36 5.05 90.5 0 0 440.6498 441.7941
  A 7.36 5.05 90.5 0 0 435.6642 434.3903
  A 7.36 5.05 90.5 0 0 430.5502 441.7059
  A 7.36 5.05 90.5 0 0 435.5358 449.1097"
/>
<path stroke="#8491a9" vector-effect="non-scaling-stroke" d="
  M 518.3107 449.1689
  A 7.41 5.11 91.0 0 0 523.5492 441.8492
  A 7.41 5.11 91.0 0 0 518.5693 434.3511
  A 7.41 5.11 91.0 0 0 513.3308 441.6708
  A 7.41 5.11 91.0 0 0 518.3107 449.1689"
/>
</g>
<path fill="#ffffff" d="
  M 0.00 0.00
  L 883.00 0.00
  L 883.00 655.00
  L 0.00 655.00
  L 0.00 0.00
  Z
  M 426.61 201.27
  A 7.93 7.93 0.0 0 0 418.68 193.34
  A 7.93 7.93 0.0 0 0 410.75 201.27
  A 7.93 7.93 0.0 0 0 418.68 209.20
  A 7.93 7.93 0.0 0 0 426.61 201.27
  Z
  M 478.72 204.55
  A 7.26 7.26 0.0 0 0 471.46 197.29
  A 7.26 7.26 0.0 0 0 464.20 204.55
  A 7.26 7.26 0.0 0 0 471.46 211.81
  A 7.26 7.26 0.0 0 0 478.72 204.55
  Z
  M 411.70 246.29
  Q 419.27 243.10 425.50 246.32
  Q 426.04 246.60 426.11 246.00
  L 430.49 211.27
  A 0.26 0.26 0.0 0 0 430.13 211.00
  Q 418.89 215.74 407.61 210.97
  A 0.48 0.48 0.0 0 0 406.94 211.47
  L 411.23 246.01
  A 0.35 0.34 75.1 0 0 411.70 246.29
  Z
  M 473.35 243.78
  C 474.66 244.11 475.55 245.13 476.37 246.12
  A 0.21 0.21 0.0 0 0 476.74 246.01
  L 480.42 215.46
  Q 480.74 212.84 479.50 215.17
  Q 478.30 217.41 475.76 219.53
  C 470.27 224.09 465.52 218.85 462.93 214.42
  Q 462.42 213.54 462.46 214.55
  C 462.66 219.91 463.81 225.13 464.31 230.37
  Q 465.01 237.77 466.26 246.12
  Q 466.40 247.05 466.87 246.24
  Q 468.93 242.69 473.35 243.78
  Z
  M 401.21 255.36
  A 6.59 6.59 0.0 0 0 394.62 248.77
  A 6.59 6.59 0.0 0 0 388.03 255.36
  A 6.59 6.59 0.0 0 0 394.62 261.95
  A 6.59 6.59 0.0 0 0 401.21 255.36
  Z
  M 414.64 311.75
  A 0.39 0.39 0.0 0 0 415.03 312.11
  L 422.28 312.14
  A 0.39 0.39 0.0 0 0 422.67 311.78
  L 427.22 250.66
  A 0.39 0.39 0.0 0 0 426.83 250.24
  L 410.53 250.26
  A 0.39 0.39 0.0 0 0 410.14 250.68
  L 414.64 311.75
  Z
  M 466.11 269.62
  Q 467.57 285.29 468.98 300.79
  Q 469.49 306.39 470.16 311.27
  Q 470.23 311.79 470.70 312.02
  Q 471.53 312.42 472.28 311.98
  Q 472.79 311.68 472.85 311.09
  L 478.70 250.65
  A 0.37 0.36 -87.8 0 0 478.34 250.25
  L 464.98 250.26
  Q 464.39 250.26 464.41 250.84
  C 464.57 257.27 465.53 263.36 466.11 269.62
  Z
  M 498.13 263.91
  A 5.92 5.92 0.0 0 0 492.21 257.99
  A 5.92 5.92 0.0 0 0 486.29 263.91
  A 5.92 5.92 0.0 0 0 492.21 269.83
  A 5.92 5.92 0.0 0 0 498.13 263.91
  Z
  M 401.83 262.96
  C 399.65 264.60 395.81 264.54 393.01 264.46
  Q 389.74 264.37 387.34 262.99
  A 0.29 0.29 0.0 0 0 386.90 263.26
  L 387.85 282.01
  Q 387.88 282.66 388.52 282.52
  Q 394.32 281.28 400.90 282.48
  A 0.32 0.31 6.5 0 0 401.27 282.19
  L 402.39 263.26
  Q 402.44 262.50 401.83 262.96
  Z
  M 445.39 273.29
  A 5.28 5.28 0.0 0 0 440.11 268.01
  A 5.28 5.28 0.0 0 0 434.83 273.29
  A 5.28 5.28 0.0 0 0 440.11 278.57
  A 5.28 5.28 0.0 0 0 445.39 273.29
  Z
  M 485.81 271.60
  A 0.24 0.24 0.0 0 0 485.50 271.86
  Q 486.63 280.14 486.81 288.96
  A 0.72 0.71 89.6 0 0 487.52 289.67
  L 496.67 289.76
  Q 497.38 289.77 497.43 289.07
  L 498.79 272.13
  Q 498.83 271.70 498.41 271.78
  Q 491.41 273.20 485.81 271.60
  Z
  M 459.17 282.64
  A 4.58 4.58 0.0 0 0 454.59 278.06
  A 4.58 4.58 0.0 0 0 450.01 282.64
  A 4.58 4.58 0.0 0 0 454.59 287.22
  A 4.58 4.58 0.0 0 0 459.17 282.64
  Z
  M 436.05 293.96
  A 0.31 0.31 0.0 0 0 436.35 294.24
  L 443.89 294.24
  A 0.31 0.31 0.0 0 0 444.19 293.96
  L 445.36 280.56
  A 0.31 0.31 0.0 0 0 445.05 280.22
  L 435.19 280.20
  A 0.31 0.31 0.0 0 0 434.88 280.54
  L 436.05 293.96
  Z
  M 390.62 311.71
  A 0.45 0.45 0.0 0 0 391.07 312.12
  L 398.17 312.07
  A 0.45 0.45 0.0 0 0 398.61 311.67
  L 401.17 286.30
  A 0.45 0.45 0.0 0 0 400.72 285.81
  L 388.55 285.77
  A 0.45 0.45 0.0 0 0 388.10 286.27
  L 390.62 311.71
  Z
  M 458.51 288.59
  A 0.32 0.32 0.0 0 0 458.19 288.25
  L 450.93 288.24
  A 0.32 0.32 0.0 0 0 450.61 288.59
  L 451.45 298.37
  A 0.32 0.32 0.0 0 0 451.78 298.67
  L 457.60 298.57
  A 0.32 0.32 0.0 0 0 457.92 298.27
  L 458.51 288.59
  Z
  M 488.24 311.43
  A 0.71 0.71 0.0 0 0 488.95 312.09
  L 495.54 312.12
  A 0.71 0.71 0.0 0 0 496.25 311.45
  L 497.42 293.12
  A 0.71 0.71 0.0 0 0 496.71 292.36
  L 487.60 292.39
  A 0.71 0.71 0.0 0 0 486.90 293.15
  L 488.24 311.43
  Z
  M 444.32 296.93
  A 0.52 0.52 0.0 0 0 443.80 296.38
  L 436.49 296.38
  A 0.52 0.52 0.0 0 0 435.97 296.93
  L 436.77 311.60
  A 0.52 0.52 0.0 0 0 437.29 312.09
  L 442.90 312.06
  A 0.52 0.52 0.0 0 0 443.42 311.57
  L 444.32 296.93
  Z
  M 452.29 311.58
  A 0.50 0.50 0.0 0 0 452.79 312.05
  L 456.41 312.03
  A 0.50 0.50 0.0 0 0 456.91 311.57
  L 457.77 300.81
  A 0.50 0.50 0.0 0 0 457.27 300.27
  L 452.02 300.29
  A 0.50 0.50 0.0 0 0 451.52 300.82
  L 452.29 311.58
  Z
  M 489.13 354.96
  L 489.53 334.99
  A 0.37 0.36 85.0 0 0 489.10 334.62
  Q 484.25 335.58 479.38 335.63
  A 0.77 0.76 -89.6 0 0 478.62 336.39
  L 478.62 336.66
  A 1.29 1.29 0.0 0 0 479.67 337.93
  L 482.63 338.50
  Q 484.15 338.79 484.17 340.34
  Q 484.53 362.57 484.01 385.00
  C 483.95 387.70 481.45 387.80 479.46 388.18
  Q 478.73 388.31 478.71 389.05
  L 478.69 389.96
  Q 478.67 390.79 479.50 390.76
  Q 486.37 390.50 493.12 390.74
  Q 493.75 390.77 494.30 390.46
  Q 495.05 390.04 494.72 389.04
  A 1.28 1.27 -0.8 0 0 493.87 388.22
  L 490.89 387.33
  A 2.19 2.19 0.0 0 1 489.32 385.24
  Q 489.20 374.24 489.21 363.81
  C 489.22 355.80 497.48 354.58 503.85 355.39
  C 508.96 356.03 510.75 359.89 510.73 364.55
  Q 510.68 377.23 510.59 389.85
  Q 510.58 391.01 511.74 391.02
  L 520.41 391.11
  Q 521.02 391.12 521.30 390.58
  Q 521.57 390.04 521.43 389.41
  Q 521.26 388.68 520.53 388.54
  C 518.67 388.19 516.43 388.09 516.00 385.75
  Q 515.54 383.32 515.59 380.94
  Q 515.80 370.71 515.82 361.91
  C 515.83 352.62 507.87 350.87 500.44 351.10
  Q 494.20 351.30 489.76 355.24
  A 0.38 0.37 -20.7 0 1 489.13 354.96
  Z
  M 316.93 342.34
  Q 317.43 364.66 316.71 385.44
  Q 316.64 387.39 313.16 387.78
  Q 311.93 387.91 311.82 389.13
  Q 311.81 389.28 311.79 389.43
  Q 311.66 390.81 313.04 390.74
  Q 319.71 390.45 326.62 390.77
  Q 327.25 390.80 327.39 390.18
  Q 327.54 389.48 327.44 388.72
  A 1.03 1.03 0.0 0 0 326.51 387.83
  C 324.78 387.66 322.66 387.52 322.59 385.21
  Q 321.97 362.71 322.34 342.51
  A 0.76 0.76 0.0 0 1 323.10 341.76
  Q 327.92 341.80 333.21 342.06
  C 335.78 342.18 336.23 345.60 336.45 347.56
  Q 336.55 348.50 337.50 348.49
  L 338.68 348.48
  A 0.88 0.88 0.0 0 0 339.55 347.57
  L 339.19 338.25
  A 0.40 0.40 0.0 0 0 338.78 337.86
  Q 318.69 338.49 300.77 337.86
  Q 300.11 337.84 300.09 338.50
  L 299.75 347.39
  Q 299.72 348.08 300.33 348.39
  Q 300.96 348.71 301.66 348.52
  A 1.56 1.55 89.4 0 0 302.76 347.39
  L 303.73 343.47
  A 1.90 1.89 5.8 0 1 305.51 342.03
  L 316.25 341.69
  Q 316.92 341.67 316.93 342.34
  Z
  M 459.52 355.93
  Q 459.64 369.37 459.17 383.51
  C 458.86 392.78 468.23 392.12 474.26 391.12
  Q 474.74 391.04 474.76 390.55
  L 474.91 387.28
  A 0.37 0.36 -5.8 0 0 474.45 386.91
  C 470.40 388.01 464.21 388.73 464.16 382.47
  Q 464.06 368.36 464.21 356.19
  Q 464.22 355.25 465.16 355.27
  L 474.40 355.44
  A 0.95 0.94 -86.0 0 0 475.36 354.60
  L 475.60 352.41
  A 0.55 0.55 0.0 0 0 475.04 351.80
  L 464.71 352.20
  Q 464.21 352.22 464.21 351.71
  L 464.35 341.66
  A 0.45 0.44 80.9 0 0 463.76 341.23
  L 459.68 342.61
  Q 459.33 342.73 459.34 343.09
  L 459.38 351.64
  Q 459.38 352.16 458.86 352.13
  L 455.26 351.96
  A 0.54 0.53 -88.4 0 0 454.71 352.49
  L 454.66 354.67
  Q 454.65 355.32 455.30 355.31
  L 458.83 355.25
  Q 459.51 355.24 459.52 355.93
  Z
  M 406.96 356.09
  Q 406.23 355.46 407.19 355.58
  L 412.61 356.26
  A 1.26 1.25 -83.9 0 0 414.02 355.12
  L 414.31 351.75
  Q 414.36 351.14 413.75 351.09
  Q 412.14 350.95 411.00 351.87
  Q 410.59 352.20 410.07 352.23
  Q 407.42 352.41 404.81 352.02
  C 396.62 350.80 382.32 349.04 379.06 359.37
  C 377.45 364.45 377.26 372.68 382.37 376.04
  Q 382.88 376.37 382.77 376.97
  C 382.17 380.31 381.75 383.28 383.52 386.34
  A 0.71 0.71 0.0 0 1 383.21 387.34
  C 377.95 389.84 375.58 394.57 377.05 400.05
  C 379.44 409.00 392.23 409.17 399.94 408.27
  C 407.00 407.45 413.02 404.14 412.95 396.08
  C 412.89 387.70 407.27 385.12 400.08 385.38
  Q 395.21 385.57 390.24 385.26
  Q 387.40 385.09 386.68 382.34
  Q 386.49 381.64 386.30 380.91
  Q 385.57 378.11 388.37 378.85
  Q 394.01 380.34 400.52 378.82
  Q 408.89 376.87 410.26 368.94
  C 411.05 364.42 410.64 359.23 406.96 356.09
  Z
  M 572.48 356.18
  Q 572.38 354.00 572.84 352.10
  Q 573.00 351.45 572.33 351.51
  L 562.42 352.35
  Q 561.79 352.40 561.74 353.03
  Q 561.70 353.55 561.86 354.04
  Q 562.07 354.66 562.72 354.73
  C 564.45 354.91 567.34 354.94 567.37 357.31
  Q 567.60 371.89 567.32 385.76
  A 1.82 1.82 0.0 0 1 565.83 387.51
  Q 563.96 387.84 562.41 388.53
  Q 561.41 388.98 561.67 390.02
  A 0.81 0.80 83.1 0 0 562.45 390.64
  L 576.92 390.66
  Q 577.82 390.66 577.92 389.77
  L 577.96 389.44
  Q 578.06 388.53 577.18 388.30
  L 573.28 387.30
  Q 572.55 387.11 572.51 386.36
  Q 572.01 376.03 572.42 365.63
  C 572.62 360.65 576.02 354.46 581.71 355.39
  A 0.84 0.84 0.0 0 1 582.38 356.00
  L 583.34 359.71
  Q 583.42 360.00 583.72 359.96
  L 585.28 359.77
  Q 585.78 359.71 585.76 359.21
  L 585.45 352.28
  A 0.72 0.72 0.0 0 0 584.94 351.62
  C 579.61 349.97 575.85 352.14 572.97 356.32
  Q 572.52 356.98 572.48 356.18
  Z
  M 371.02 363.63
  Q 368.61 352.85 358.49 351.42
  C 350.02 350.21 341.18 352.02 338.29 361.28
  C 335.71 369.52 335.54 386.85 346.20 390.50
  C 353.95 393.15 366.44 392.47 369.89 382.89
  Q 373.24 373.60 371.02 363.63
  Z
  M 424.03 368.76
  C 432.43 368.27 441.13 368.68 449.54 368.77
  Q 450.15 368.77 450.19 368.17
  C 450.75 360.31 449.16 353.18 440.20 351.57
  Q 436.27 350.86 432.19 351.35
  C 419.41 352.88 417.79 364.71 418.50 375.37
  Q 418.92 381.77 422.07 386.02
  C 427.53 393.42 440.08 392.22 447.94 389.95
  A 1.18 1.17 82.2 0 0 448.79 388.82
  L 448.79 386.04
  Q 448.78 385.07 447.87 385.39
  Q 442.43 387.29 436.80 387.54
  C 425.65 388.02 422.89 378.50 423.44 369.36
  Q 423.47 368.79 424.03 368.76
  Z
  M 531.35 368.80
  C 539.70 368.15 548.36 368.63 556.81 368.78
  Q 557.46 368.79 557.49 368.14
  Q 557.72 363.55 557.05 359.91
  C 556.22 355.39 551.88 352.19 547.35 351.51
  C 532.18 349.26 525.69 356.97 525.59 371.32
  C 525.51 381.69 528.96 390.82 540.67 391.52
  Q 547.98 391.95 555.23 389.93
  Q 556.11 389.69 556.13 388.76
  L 556.19 385.99
  A 0.68 0.68 0.0 0 0 555.28 385.33
  C 540.67 390.50 529.50 387.13 530.75 369.41
  Q 530.79 368.84 531.35 368.80
  Z
  M 372.61 445.07
  C 371.75 449.82 363.83 450.25 361.95 446.01
  Q 360.79 443.40 359.82 446.08
  Q 359.08 448.14 361.22 449.31
  Q 365.39 451.58 369.92 450.15
  C 374.62 448.67 377.52 441.27 372.23 438.46
  C 369.68 437.11 362.42 435.01 362.97 431.19
  Q 363.35 428.55 366.39 428.03
  Q 371.13 427.21 371.77 431.30
  Q 371.86 431.88 372.43 431.75
  Q 373.25 431.55 373.54 430.74
  C 375.61 424.85 362.85 424.26 360.82 430.50
  C 359.71 433.91 362.61 436.78 365.45 437.98
  C 368.51 439.26 373.39 440.81 372.61 445.07
  Z
  M 384.1902 450.9007
  A 9.20 7.59 95.3 0 0 392.5976 442.4411
  A 9.20 7.59 95.3 0 0 385.8898 432.5793
  A 9.20 7.59 95.3 0 0 377.4824 441.0389
  A 9.20 7.59 95.3 0 0 384.1902 450.9007
  Z
  M 400.21 434.27
  Q 400.23 433.75 400.06 433.25
  Q 399.84 432.65 399.21 432.74
  L 396.70 433.11
  Q 395.00 433.36 396.35 434.43
  Q 396.94 434.90 397.66 434.90
  A 0.58 0.57 -0.0 0 1 398.24 435.47
  L 398.23 447.85
  A 0.86 0.86 0.0 0 1 397.50 448.70
  Q 396.79 448.80 396.29 449.25
  Q 395.12 450.31 396.70 450.30
  L 402.74 450.23
  A 0.48 0.48 0.0 0 0 403.22 449.75
  L 403.23 449.42
  Q 403.23 449.09 402.91 449.05
  L 401.23 448.82
  Q 400.50 448.72 400.50 447.98
  L 400.51 439.04
  Q 400.51 435.27 404.27 435.11
  Q 404.73 435.09 405.06 435.08
  Q 409.52 434.89 409.52 439.35
  L 409.52 447.93
  Q 409.52 448.64 408.83 448.82
  L 407.87 449.06
  Q 407.53 449.15 407.25 449.37
  Q 406.83 449.70 407.12 450.05
  A 0.54 0.51 69.1 0 0 407.52 450.24
  L 413.86 450.27
  A 0.59 0.59 0.0 0 0 414.45 449.63
  L 414.43 449.35
  A 0.30 0.29 -85.9 0 0 414.21 449.09
  L 412.39 448.63
  Q 411.83 448.48 411.83 447.90
  L 411.79 437.59
  Q 411.79 437.10 412.15 436.78
  C 414.98 434.28 419.45 433.47 420.54 438.25
  Q 420.98 440.21 420.72 447.82
  Q 420.69 448.44 420.14 448.71
  Q 419.48 449.05 418.76 449.34
  Q 418.38 449.50 418.37 449.88
  Q 418.35 450.28 418.75 450.28
  L 425.16 450.25
  A 0.47 0.47 0.0 0 0 425.63 449.82
  L 425.66 449.50
  A 0.45 0.45 0.0 0 0 425.28 449.02
  L 423.58 448.75
  Q 423.04 448.67 423.04 448.12
  C 423.00 443.06 424.89 430.34 415.05 433.01
  C 413.69 433.38 412.62 434.44 411.52 435.29
  Q 410.99 435.70 410.62 435.15
  Q 408.37 431.79 403.99 433.07
  C 402.83 433.41 401.90 434.21 400.80 434.68
  Q 400.18 434.95 400.21 434.27
  Z
  M 434.8218 450.8378
  A 9.18 7.57 94.8 0 0 443.1335 442.3234
  A 9.18 7.57 94.8 0 0 436.3582 432.5422
  A 9.18 7.57 94.8 0 0 428.0465 441.0566
  A 9.18 7.57 94.8 0 0 434.8218 450.8378
  Z
  M 454.19 435.80
  L 454.38 436.53
  Q 454.62 437.47 455.49 437.04
  Q 456.63 436.46 456.68 435.03
  A 1.68 1.67 12.5 0 0 455.66 433.43
  C 452.58 432.11 447.44 432.31 446.24 436.15
  C 444.67 441.16 450.84 442.26 453.89 443.72
  C 458.61 445.97 451.57 452.31 447.34 446.86
  Q 445.96 445.08 445.52 447.30
  Q 445.16 449.16 447.22 449.89
  C 451.52 451.43 456.84 450.87 457.36 445.38
  Q 457.63 442.57 454.71 441.37
  Q 451.97 440.25 449.27 438.88
  C 447.57 438.01 447.53 435.89 449.34 435.10
  Q 451.47 434.18 453.20 434.74
  Q 453.99 435.00 454.19 435.80
  Z
  M 495.02 434.96
  A 0.55 0.55 0.0 0 1 494.15 434.46
  Q 494.38 432.38 492.52 432.81
  Q 491.43 433.07 490.20 433.10
  Q 489.53 433.12 489.48 433.78
  Q 489.45 434.22 489.90 434.35
  Q 490.83 434.63 491.73 434.82
  A 0.66 0.65 -84.5 0 1 492.24 435.45
  L 492.26 447.90
  Q 492.26 448.59 491.60 448.79
  L 490.60 449.08
  Q 490.27 449.17 489.99 449.38
  Q 489.63 449.65 489.75 449.89
  Q 489.93 450.27 490.35 450.27
  Q 493.20 450.26 496.39 450.22
  Q 497.34 450.21 496.81 449.42
  Q 496.33 448.72 495.39 448.81
  Q 494.49 448.90 494.49 448.00
  L 494.51 437.54
  Q 494.51 437.00 494.93 436.66
  C 497.69 434.50 503.45 433.02 503.71 438.64
  Q 503.90 442.92 503.87 447.89
  A 0.84 0.84 0.0 0 1 503.31 448.68
  L 501.65 449.28
  Q 501.53 449.32 501.48 449.44
  Q 501.42 449.56 501.37 449.67
  Q 501.09 450.27 501.75 450.27
  L 508.14 450.24
  Q 508.51 450.24 508.49 449.86
  L 508.47 449.53
  A 0.52 0.52 0.0 0 0 507.93 449.05
  Q 507.22 449.07 506.64 448.70
  Q 506.11 448.35 506.12 447.64
  C 506.16 444.04 506.93 437.53 504.66 434.70
  C 501.95 431.32 497.98 432.82 495.02 434.96
  Z
  M 517.4756 450.8281
  A 9.17 7.54 96.1 0 0 525.9473 442.5112
  A 9.17 7.54 96.1 0 0 519.4244 432.5919
  A 9.17 7.54 96.1 0 0 510.9527 440.9088
  A 9.17 7.54 96.1 0 0 517.4756 450.8281
  Z
  M 470.76 434.87
  A 0.48 0.47 -85.0 0 1 471.15 435.34
  C 471.10 439.12 470.35 445.09 472.40 448.32
  C 474.50 451.61 478.45 451.09 481.44 449.29
  A 0.99 0.99 0.0 0 1 482.58 449.38
  Q 484.30 450.84 486.67 450.01
  A 0.48 0.47 -9.4 0 0 487.00 449.56
  Q 486.99 449.27 486.82 449.05
  A 1.03 1.01 70.8 0 0 486.05 448.67
  Q 484.53 448.65 484.52 447.18
  Q 484.47 440.07 484.58 433.71
  Q 484.59 433.10 483.97 433.11
  L 480.50 433.15
  A 1.24 0.98 -66.3 0 0 479.67 433.59
  Q 479.55 433.73 479.56 433.91
  A 0.67 0.67 0.0 0 0 479.99 434.52
  Q 480.70 434.79 481.45 434.72
  Q 482.27 434.63 482.27 435.45
  L 482.24 444.82
  Q 482.22 448.47 478.57 448.49
  Q 477.94 448.50 477.30 448.50
  Q 473.49 448.53 473.50 444.71
  L 473.53 433.76
  Q 473.53 433.18 472.95 433.15
  Q 470.98 433.04 469.16 433.13
  Q 468.45 433.16 468.38 433.91
  Q 468.33 434.47 468.89 434.56
  L 470.76 434.87
  Z"
/>
<circle fill="#172c5d" cx="418.68" cy="201.27" r="7.93"/>
<circle fill="#172c5d" cx="471.46" cy="204.55" r="7.26"/>
<path fill="#172c5d" d="
  M 411.70 246.29
  A 0.35 0.34 75.1 0 1 411.23 246.01
  L 406.94 211.47
  A 0.48 0.48 0.0 0 1 407.61 210.97
  Q 418.89 215.74 430.13 211.00
  A 0.26 0.26 0.0 0 1 430.49 211.27
  L 426.11 246.00
  Q 426.04 246.60 425.50 246.32
  Q 419.27 243.10 411.70 246.29
  Z"
/>
<path fill="#172c5d" d="
  M 473.35 243.78
  Q 468.93 242.69 466.87 246.24
  Q 466.40 247.05 466.26 246.12
  Q 465.01 237.77 464.31 230.37
  C 463.81 225.13 462.66 219.91 462.46 214.55
  Q 462.42 213.54 462.93 214.42
  C 465.52 218.85 470.27 224.09 475.76 219.53
  Q 478.30 217.41 479.50 215.17
  Q 480.74 212.84 480.42 215.46
  L 476.74 246.01
  A 0.21 0.21 0.0 0 1 476.37 246.12
  C 475.55 245.13 474.66 244.11 473.35 243.78
  Z"
/>
<circle fill="#172c5d" cx="394.62" cy="255.36" r="6.59"/>
<path fill="#172c5d" d="
  M 414.64 311.75
  L 410.14 250.68
  A 0.39 0.39 0.0 0 1 410.53 250.26
  L 426.83 250.24
  A 0.39 0.39 0.0 0 1 427.22 250.66
  L 422.67 311.78
  A 0.39 0.39 0.0 0 1 422.28 312.14
  L 415.03 312.11
  A 0.39 0.39 0.0 0 1 414.64 311.75
  Z"
/>
<path fill="#172c5d" d="
  M 466.11 269.62
  C 465.53 263.36 464.57 257.27 464.41 250.84
  Q 464.39 250.26 464.98 250.26
  L 478.34 250.25
  A 0.37 0.36 -87.8 0 1 478.70 250.65
  L 472.85 311.09
  Q 472.79 311.68 472.28 311.98
  Q 471.53 312.42 470.70 312.02
  Q 470.23 311.79 470.16 311.27
  Q 469.49 306.39 468.98 300.79
  Q 467.57 285.29 466.11 269.62
  Z"
/>
<circle fill="#172c5d" cx="492.21" cy="263.91" r="5.92"/>
<path fill="#172c5d" d="
  M 393.01 264.46
  C 395.81 264.54 399.65 264.60 401.83 262.96
  Q 402.44 262.50 402.39 263.26
  L 401.27 282.19
  A 0.32 0.31 6.5 0 1 400.90 282.48
  Q 394.32 281.28 388.52 282.52
  Q 387.88 282.66 387.85 282.01
  L 386.90 263.26
  A 0.29 0.29 0.0 0 1 387.34 262.99
  Q 389.74 264.37 393.01 264.46
  Z"
/>
<circle fill="#172c5d" cx="440.11" cy="273.29" r="5.28"/>
<path fill="#172c5d" d="
  M 485.81 271.60
  Q 491.41 273.20 498.41 271.78
  Q 498.83 271.70 498.79 272.13
  L 497.43 289.07
  Q 497.38 289.77 496.67 289.76
  L 487.52 289.67
  A 0.72 0.71 89.6 0 1 486.81 288.96
  Q 486.63 280.14 485.50 271.86
  A 0.24 0.24 0.0 0 1 485.81 271.60
  Z"
/>
<circle fill="#172c5d" cx="454.59" cy="282.64" r="4.58"/>
<path fill="#172c5d" d="
  M 436.05 293.96
  L 434.88 280.54
  A 0.31 0.31 0.0 0 1 435.19 280.20
  L 445.05 280.22
  A 0.31 0.31 0.0 0 1 445.36 280.56
  L 444.19 293.96
  A 0.31 0.31 0.0 0 1 443.89 294.24
  L 436.35 294.24
  A 0.31 0.31 0.0 0 1 436.05 293.96
  Z"
/>
<path fill="#172c5d" d="
  M 390.62 311.71
  L 388.10 286.27
  A 0.45 0.45 0.0 0 1 388.55 285.77
  L 400.72 285.81
  A 0.45 0.45 0.0 0 1 401.17 286.30
  L 398.61 311.67
  A 0.45 0.45 0.0 0 1 398.17 312.07
  L 391.07 312.12
  A 0.45 0.45 0.0 0 1 390.62 311.71
  Z"
/>
<path fill="#172c5d" d="
  M 458.51 288.59
  L 457.92 298.27
  A 0.32 0.32 0.0 0 1 457.60 298.57
  L 451.78 298.67
  A 0.32 0.32 0.0 0 1 451.45 298.37
  L 450.61 288.59
  A 0.32 0.32 0.0 0 1 450.93 288.24
  L 458.19 288.25
  A 0.32 0.32 0.0 0 1 458.51 288.59
  Z"
/>
<path fill="#172c5d" d="
  M 488.24 311.43
  L 486.90 293.15
  A 0.71 0.71 0.0 0 1 487.60 292.39
  L 496.71 292.36
  A 0.71 0.71 0.0 0 1 497.42 293.12
  L 496.25 311.45
  A 0.71 0.71 0.0 0 1 495.54 312.12
  L 488.95 312.09
  A 0.71 0.71 0.0 0 1 488.24 311.43
  Z"
/>
<path fill="#172c5d" d="
  M 444.32 296.93
  L 443.42 311.57
  A 0.52 0.52 0.0 0 1 442.90 312.06
  L 437.29 312.09
  A 0.52 0.52 0.0 0 1 436.77 311.60
  L 435.97 296.93
  A 0.52 0.52 0.0 0 1 436.49 296.38
  L 443.80 296.38
  A 0.52 0.52 0.0 0 1 444.32 296.93
  Z"
/>
<path fill="#172c5d" d="
  M 452.29 311.58
  L 451.52 300.82
  A 0.50 0.50 0.0 0 1 452.02 300.29
  L 457.27 300.27
  A 0.50 0.50 0.0 0 1 457.77 300.81
  L 456.91 311.57
  A 0.50 0.50 0.0 0 1 456.41 312.03
  L 452.79 312.05
  A 0.50 0.50 0.0 0 1 452.29 311.58
  Z"
/>
<path fill="#395fa4" d="
  M 489.13 354.96
  A 0.38 0.37 -20.7 0 0 489.76 355.24
  Q 494.20 351.30 500.44 351.10
  C 507.87 350.87 515.83 352.62 515.82 361.91
  Q 515.80 370.71 515.59 380.94
  Q 515.54 383.32 516.00 385.75
  C 516.43 388.09 518.67 388.19 520.53 388.54
  Q 521.26 388.68 521.43 389.41
  Q 521.57 390.04 521.30 390.58
  Q 521.02 391.12 520.41 391.11
  L 511.74 391.02
  Q 510.58 391.01 510.59 389.85
  Q 510.68 377.23 510.73 364.55
  C 510.75 359.89 508.96 356.03 503.85 355.39
  C 497.48 354.58 489.22 355.80 489.21 363.81
  Q 489.20 374.24 489.32 385.24
  A 2.19 2.19 0.0 0 0 490.89 387.33
  L 493.87 388.22
  A 1.28 1.27 -0.8 0 1 494.72 389.04
  Q 495.05 390.04 494.30 390.46
  Q 493.75 390.77 493.12 390.74
  Q 486.37 390.50 479.50 390.76
  Q 478.67 390.79 478.69 389.96
  L 478.71 389.05
  Q 478.73 388.31 479.46 388.18
  C 481.45 387.80 483.95 387.70 484.01 385.00
  Q 484.53 362.57 484.17 340.34
  Q 484.15 338.79 482.63 338.50
  L 479.67 337.93
  A 1.29 1.29 0.0 0 1 478.62 336.66
  L 478.62 336.39
  A 0.77 0.76 -89.6 0 1 479.38 335.63
  Q 484.25 335.58 489.10 334.62
  A 0.37 0.36 85.0 0 1 489.53 334.99
  L 489.13 354.96
  Z"
/>
<path fill="#172c5d" d="
  M 316.25 341.69
  L 305.51 342.03
  A 1.90 1.89 5.8 0 0 303.73 343.47
  L 302.76 347.39
  A 1.56 1.55 89.4 0 1 301.66 348.52
  Q 300.96 348.71 300.33 348.39
  Q 299.72 348.08 299.75 347.39
  L 300.09 338.50
  Q 300.11 337.84 300.77 337.86
  Q 318.69 338.49 338.78 337.86
  A 0.40 0.40 0.0 0 1 339.19 338.25
  L 339.55 347.57
  A 0.88 0.88 0.0 0 1 338.68 348.48
  L 337.50 348.49
  Q 336.55 348.50 336.45 347.56
  C 336.23 345.60 335.78 342.18 333.21 342.06
  Q 327.92 341.80 323.10 341.76
  A 0.76 0.76 0.0 0 0 322.34 342.51
  Q 321.97 362.71 322.59 385.21
  C 322.66 387.52 324.78 387.66 326.51 387.83
  A 1.03 1.03 0.0 0 1 327.44 388.72
  Q 327.54 389.48 327.39 390.18
  Q 327.25 390.80 326.62 390.77
  Q 319.71 390.45 313.04 390.74
  Q 311.66 390.81 311.79 389.43
  Q 311.81 389.28 311.82 389.13
  Q 311.93 387.91 313.16 387.78
  Q 316.64 387.39 316.71 385.44
  Q 317.43 364.66 316.93 342.34
  Q 316.92 341.67 316.25 341.69
  Z"
/>
<path fill="#315496" d="
  M 458.83 355.25
  L 455.30 355.31
  Q 454.65 355.32 454.66 354.67
  L 454.71 352.49
  A 0.54 0.53 -88.4 0 1 455.26 351.96
  L 458.86 352.13
  Q 459.38 352.16 459.38 351.64
  L 459.34 343.09
  Q 459.33 342.73 459.68 342.61
  L 463.76 341.23
  A 0.45 0.44 80.9 0 1 464.35 341.66
  L 464.21 351.71
  Q 464.21 352.22 464.71 352.20
  L 475.04 351.80
  A 0.55 0.55 0.0 0 1 475.60 352.41
  L 475.36 354.60
  A 0.95 0.94 -86.0 0 1 474.40 355.44
  L 465.16 355.27
  Q 464.22 355.25 464.21 356.19
  Q 464.06 368.36 464.16 382.47
  C 464.21 388.73 470.40 388.01 474.45 386.91
  A 0.37 0.36 -5.8 0 1 474.91 387.28
  L 474.76 390.55
  Q 474.74 391.04 474.26 391.12
  C 468.23 392.12 458.86 392.78 459.17 383.51
  Q 459.64 369.37 459.52 355.93
  Q 459.51 355.24 458.83 355.25
  Z"
/>
<path fill="#24407a" d="
  M 406.96 356.09
  C 410.64 359.23 411.05 364.42 410.26 368.94
  Q 408.89 376.87 400.52 378.82
  Q 394.01 380.34 388.37 378.85
  Q 385.57 378.11 386.30 380.91
  Q 386.49 381.64 386.68 382.34
  Q 387.40 385.09 390.24 385.26
  Q 395.21 385.57 400.08 385.38
  C 407.27 385.12 412.89 387.70 412.95 396.08
  C 413.02 404.14 407.00 407.45 399.94 408.27
  C 392.23 409.17 379.44 409.00 377.05 400.05
  C 375.58 394.57 377.95 389.84 383.21 387.34
  A 0.71 0.71 0.0 0 0 383.52 386.34
  C 381.75 383.28 382.17 380.31 382.77 376.97
  Q 382.88 376.37 382.37 376.04
  C 377.26 372.68 377.45 364.45 379.06 359.37
  C 382.32 349.04 396.62 350.80 404.81 352.02
  Q 407.42 352.41 410.07 352.23
  Q 410.59 352.20 411.00 351.87
  Q 412.14 350.95 413.75 351.09
  Q 414.36 351.14 414.31 351.75
  L 414.02 355.12
  A 1.26 1.25 -83.9 0 1 412.61 356.26
  L 407.19 355.58
  Q 406.23 355.46 406.96 356.09
  Z
  M 405.2730 363.4338
  A 8.42 8.42 0.0 0 0 396.9565 354.9116
  L 391.9169 354.8500
  A 8.42 8.42 0.0 0 0 383.3946 363.1665
  L 383.3470 367.0662
  A 8.42 8.42 0.0 0 0 391.6635 375.5884
  L 396.7031 375.6500
  A 8.42 8.42 0.0 0 0 405.2254 367.3335
  L 405.2730 363.4338
  Z
  M 407.81 394.57
  C 406.53 387.78 393.16 391.02 388.31 389.70
  C 386.34 389.16 384.17 390.42 383.07 391.96
  C 379.84 396.48 382.12 402.36 387.61 403.77
  C 394.56 405.57 409.93 405.81 407.81 394.57
  Z"
/>
<path fill="#4572c1" d="
  M 572.97 356.32
  C 575.85 352.14 579.61 349.97 584.94 351.62
  A 0.72 0.72 0.0 0 1 585.45 352.28
  L 585.76 359.21
  Q 585.78 359.71 585.28 359.77
  L 583.72 359.96
  Q 583.42 360.00 583.34 359.71
  L 582.38 356.00
  A 0.84 0.84 0.0 0 0 581.71 355.39
  C 576.02 354.46 572.62 360.65 572.42 365.63
  Q 572.01 376.03 572.51 386.36
  Q 572.55 387.11 573.28 387.30
  L 577.18 388.30
  Q 578.06 388.53 577.96 389.44
  L 577.92 389.77
  Q 577.82 390.66 576.92 390.66
  L 562.45 390.64
  A 0.81 0.80 83.1 0 1 561.67 390.02
  Q 561.41 388.98 562.41 388.53
  Q 563.96 387.84 565.83 387.51
  A 1.82 1.82 0.0 0 0 567.32 385.76
  Q 567.60 371.89 567.37 357.31
  C 567.34 354.94 564.45 354.91 562.72 354.73
  Q 562.07 354.66 561.86 354.04
  Q 561.70 353.55 561.74 353.03
  Q 561.79 352.40 562.42 352.35
  L 572.33 351.51
  Q 573.00 351.45 572.84 352.10
  Q 572.38 354.00 572.48 356.18
  Q 572.52 356.98 572.97 356.32
  Z"
/>
<path fill="#1e366b" d="
  M 371.02 363.63
  Q 373.24 373.60 369.89 382.89
  C 366.44 392.47 353.95 393.15 346.20 390.50
  C 335.54 386.85 335.71 369.52 338.29 361.28
  C 341.18 352.02 350.02 350.21 358.49 351.42
  Q 368.61 352.85 371.02 363.63
  Z
  M 350.08 355.39
  C 340.95 357.36 341.34 372.19 342.78 379.06
  C 343.75 383.72 346.74 387.16 351.54 387.68
  C 357.77 388.34 363.29 387.27 365.34 380.56
  C 367.10 374.80 368.13 359.52 360.54 356.24
  Q 355.74 354.17 350.08 355.39
  Z"
/>
<path fill="#2b4a88" d="
  M 423.44 369.36
  C 422.89 378.50 425.65 388.02 436.80 387.54
  Q 442.43 387.29 447.87 385.39
  Q 448.78 385.07 448.79 386.04
  L 448.79 388.82
  A 1.18 1.17 82.2 0 1 447.94 389.95
  C 440.08 392.22 427.53 393.42 422.07 386.02
  Q 418.92 381.77 418.50 375.37
  C 417.79 364.71 419.41 352.88 432.19 351.35
  Q 436.27 350.86 440.20 351.57
  C 449.16 353.18 450.75 360.31 450.19 368.17
  Q 450.15 368.77 449.54 368.77
  C 441.13 368.68 432.43 368.27 424.03 368.76
  Q 423.47 368.79 423.44 369.36
  Z
  M 424.57 365.58
  L 444.97 365.40
  A 0.47 0.47 0.0 0 0 445.43 364.93
  L 445.42 363.58
  A 9.09 8.94 -0.5 0 0 436.25 354.72
  L 433.09 354.74
  A 9.09 8.94 -0.5 0 0 424.08 363.76
  L 424.09 365.11
  A 0.47 0.47 0.0 0 0 424.57 365.58
  Z"
/>
<path fill="#3e68b3" d="
  M 530.75 369.41
  C 529.50 387.13 540.67 390.50 555.28 385.33
  A 0.68 0.68 0.0 0 1 556.19 385.99
  L 556.13 388.76
  Q 556.11 389.69 555.23 389.93
  Q 547.98 391.95 540.67 391.52
  C 528.96 390.82 525.51 381.69 525.59 371.32
  C 525.69 356.97 532.18 349.26 547.35 351.51
  C 551.88 352.19 556.22 355.39 557.05 359.91
  Q 557.72 363.55 557.49 368.14
  Q 557.46 368.79 556.81 368.78
  C 548.36 368.63 539.70 368.15 531.35 368.80
  Q 530.79 368.84 530.75 369.41
  Z
  M 531.97 365.58
  L 552.13 365.40
  A 0.62 0.62 0.0 0 0 552.74 364.78
  L 552.73 363.60
  A 9.04 8.94 -0.5 0 0 543.61 354.74
  L 540.29 354.76
  A 9.04 8.94 -0.5 0 0 531.33 363.78
  L 531.34 364.96
  A 0.62 0.62 0.0 0 0 531.97 365.58
  Z"
/>
<rect fill="#ffffff" x="-10.94" y="-10.37" transform="translate(394.31,365.25) rotate(0.7)" width="21.88" height="20.74" rx="8.42"/>
<path fill="#ffffff" d="
  M 424.57 365.58
  A 0.47 0.47 0.0 0 1 424.09 365.11
  L 424.08 363.76
  A 9.09 8.94 -0.5 0 1 433.09 354.74
  L 436.25 354.72
  A 9.09 8.94 -0.5 0 1 445.42 363.58
  L 445.43 364.93
  A 0.47 0.47 0.0 0 1 444.97 365.40
  L 424.57 365.58
  Z"
/>
<path fill="#ffffff" d="
  M 531.97 365.58
  A 0.62 0.62 0.0 0 1 531.34 364.96
  L 531.33 363.78
  A 9.04 8.94 -0.5 0 1 540.29 354.76
  L 543.61 354.74
  A 9.04 8.94 -0.5 0 1 552.73 363.60
  L 552.74 364.78
  A 0.62 0.62 0.0 0 1 552.13 365.40
  L 531.97 365.58
  Z"
/>
<path fill="#ffffff" d="
  M 342.78 379.06
  C 341.34 372.19 340.95 357.36 350.08 355.39
  Q 355.74 354.17 360.54 356.24
  C 368.13 359.52 367.10 374.80 365.34 380.56
  C 363.29 387.27 357.77 388.34 351.54 387.68
  C 346.74 387.16 343.75 383.72 342.78 379.06
  Z"
/>
<path fill="#ffffff" d="
  M 388.31 389.70
  C 393.16 391.02 406.53 387.78 407.81 394.57
  C 409.93 405.81 394.56 405.57 387.61 403.77
  C 382.12 402.36 379.84 396.48 383.07 391.96
  C 384.17 390.42 386.34 389.16 388.31 389.70
  Z"
/>
<path fill="#092352" d="
  M 361.95 446.01
  C 363.83 450.25 371.75 449.82 372.61 445.07
  C 373.39 440.81 368.51 439.26 365.45 437.98
  C 362.61 436.78 359.71 433.91 360.82 430.50
  C 362.85 424.26 375.61 424.85 373.54 430.74
  Q 373.25 431.55 372.43 431.75
  Q 371.86 431.88 371.77 431.30
  Q 371.13 427.21 366.39 428.03
  Q 363.35 428.55 362.97 431.19
  C 362.42 435.01 369.68 437.11 372.23 438.46
  C 377.52 441.27 374.62 448.67 369.92 450.15
  Q 365.39 451.58 361.22 449.31
  Q 359.08 448.14 359.82 446.08
  Q 360.79 443.40 361.95 446.01
  Z"
/>
<path fill="#092352" d="
  M 384.1902 450.9007
  A 9.20 7.59 95.3 0 1 377.4824 441.0389
  A 9.20 7.59 95.3 0 1 385.8898 432.5793
  A 9.20 7.59 95.3 0 1 392.5976 442.4411
  A 9.20 7.59 95.3 0 1 384.1902 450.9007
  Z
  M 385.0200 449.1600
  A 7.41 5.06 90.0 0 0 390.0800 441.7500
  A 7.41 5.06 90.0 0 0 385.0200 434.3400
  A 7.41 5.06 90.0 0 0 379.9600 441.7500
  A 7.41 5.06 90.0 0 0 385.0200 449.1600
  Z"
/>
<path fill="#092352" d="
  M 400.80 434.68
  C 401.90 434.21 402.83 433.41 403.99 433.07
  Q 408.37 431.79 410.62 435.15
  Q 410.99 435.70 411.52 435.29
  C 412.62 434.44 413.69 433.38 415.05 433.01
  C 424.89 430.34 423.00 443.06 423.04 448.12
  Q 423.04 448.67 423.58 448.75
  L 425.28 449.02
  A 0.45 0.45 0.0 0 1 425.66 449.50
  L 425.63 449.82
  A 0.47 0.47 0.0 0 1 425.16 450.25
  L 418.75 450.28
  Q 418.35 450.28 418.37 449.88
  Q 418.38 449.50 418.76 449.34
  Q 419.48 449.05 420.14 448.71
  Q 420.69 448.44 420.72 447.82
  Q 420.98 440.21 420.54 438.25
  C 419.45 433.47 414.98 434.28 412.15 436.78
  Q 411.79 437.10 411.79 437.59
  L 411.83 447.90
  Q 411.83 448.48 412.39 448.63
  L 414.21 449.09
  A 0.30 0.29 -85.9 0 1 414.43 449.35
  L 414.45 449.63
  A 0.59 0.59 0.0 0 1 413.86 450.27
  L 407.52 450.24
  A 0.54 0.51 69.1 0 1 407.12 450.05
  Q 406.83 449.70 407.25 449.37
  Q 407.53 449.15 407.87 449.06
  L 408.83 448.82
  Q 409.52 448.64 409.52 447.93
  L 409.52 439.35
  Q 409.52 434.89 405.06 435.08
  Q 404.73 435.09 404.27 435.11
  Q 400.51 435.27 400.51 439.04
  L 400.50 447.98
  Q 400.50 448.72 401.23 448.82
  L 402.91 449.05
  Q 403.23 449.09 403.23 449.42
  L 403.22 449.75
  A 0.48 0.48 0.0 0 1 402.74 450.23
  L 396.70 450.30
  Q 395.12 450.31 396.29 449.25
  Q 396.79 448.80 397.50 448.70
  A 0.86 0.86 0.0 0 0 398.23 447.85
  L 398.24 435.47
  A 0.58 0.57 0.0 0 0 397.66 434.90
  Q 396.94 434.90 396.35 434.43
  Q 395.00 433.36 396.70 433.11
  L 399.21 432.74
  Q 399.84 432.65 400.06 433.25
  Q 400.23 433.75 400.21 434.27
  Q 400.18 434.95 400.80 434.68
  Z"
/>
<path fill="#092352" d="
  M 434.8218 450.8378
  A 9.18 7.57 94.8 0 1 428.0465 441.0566
  A 9.18 7.57 94.8 0 1 436.3582 432.5422
  A 9.18 7.57 94.8 0 1 443.1335 442.3234
  A 9.18 7.57 94.8 0 1 434.8218 450.8378
  Z
  M 435.5358 449.1097
  A 7.36 5.05 90.5 0 0 440.6498 441.7941
  A 7.36 5.05 90.5 0 0 435.6642 434.3903
  A 7.36 5.05 90.5 0 0 430.5502 441.7059
  A 7.36 5.05 90.5 0 0 435.5358 449.1097
  Z"
/>
<path fill="#172c5d" d="
  M 453.20 434.74
  Q 451.47 434.18 449.34 435.10
  C 447.53 435.89 447.57 438.01 449.27 438.88
  Q 451.97 440.25 454.71 441.37
  Q 457.63 442.57 457.36 445.38
  C 456.84 450.87 451.52 451.43 447.22 449.89
  Q 445.16 449.16 445.52 447.30
  Q 445.96 445.08 447.34 446.86
  C 451.57 452.31 458.61 445.97 453.89 443.72
  C 450.84 442.26 444.67 441.16 446.24 436.15
  C 447.44 432.31 452.58 432.11 455.66 433.43
  A 1.68 1.67 12.5 0 1 456.68 435.03
  Q 456.63 436.46 455.49 437.04
  Q 454.62 437.47 454.38 436.53
  L 454.19 435.80
  Q 453.99 435.00 453.20 434.74
  Z"
/>
<path fill="#092352" d="
  M 495.02 434.96
  C 497.98 432.82 501.95 431.32 504.66 434.70
  C 506.93 437.53 506.16 444.04 506.12 447.64
  Q 506.11 448.35 506.64 448.70
  Q 507.22 449.07 507.93 449.05
  A 0.52 0.52 0.0 0 1 508.47 449.53
  L 508.49 449.86
  Q 508.51 450.24 508.14 450.24
  L 501.75 450.27
  Q 501.09 450.27 501.37 449.67
  Q 501.42 449.56 501.48 449.44
  Q 501.53 449.32 501.65 449.28
  L 503.31 448.68
  A 0.84 0.84 0.0 0 0 503.87 447.89
  Q 503.90 442.92 503.71 438.64
  C 503.45 433.02 497.69 434.50 494.93 436.66
  Q 494.51 437.00 494.51 437.54
  L 494.49 448.00
  Q 494.49 448.90 495.39 448.81
  Q 496.33 448.72 496.81 449.42
  Q 497.34 450.21 496.39 450.22
  Q 493.20 450.26 490.35 450.27
  Q 489.93 450.27 489.75 449.89
  Q 489.63 449.65 489.99 449.38
  Q 490.27 449.17 490.60 449.08
  L 491.60 448.79
  Q 492.26 448.59 492.26 447.90
  L 492.24 435.45
  A 0.66 0.65 -84.5 0 0 491.73 434.82
  Q 490.83 434.63 489.90 434.35
  Q 489.45 434.22 489.48 433.78
  Q 489.53 433.12 490.20 433.10
  Q 491.43 433.07 492.52 432.81
  Q 494.38 432.38 494.15 434.46
  A 0.55 0.55 0.0 0 0 495.02 434.96
  Z"
/>
<path fill="#092352" d="
  M 517.4756 450.8281
  A 9.17 7.54 96.1 0 1 510.9527 440.9088
  A 9.17 7.54 96.1 0 1 519.4244 432.5919
  A 9.17 7.54 96.1 0 1 525.9473 442.5112
  A 9.17 7.54 96.1 0 1 517.4756 450.8281
  Z
  M 518.3107 449.1689
  A 7.41 5.11 91.0 0 0 523.5492 441.8492
  A 7.41 5.11 91.0 0 0 518.5693 434.3511
  A 7.41 5.11 91.0 0 0 513.3308 441.6708
  A 7.41 5.11 91.0 0 0 518.3107 449.1689
  Z"
/>
<path fill="#172c5d" d="
  M 470.76 434.87
  L 468.89 434.56
  Q 468.33 434.47 468.38 433.91
  Q 468.45 433.16 469.16 433.13
  Q 470.98 433.04 472.95 433.15
  Q 473.53 433.18 473.53 433.76
  L 473.50 444.71
  Q 473.49 448.53 477.30 448.50
  Q 477.94 448.50 478.57 448.49
  Q 482.22 448.47 482.24 444.82
  L 482.27 435.45
  Q 482.27 434.63 481.45 434.72
  Q 480.70 434.79 479.99 434.52
  A 0.67 0.67 0.0 0 1 479.56 433.91
  Q 479.55 433.73 479.67 433.59
  A 1.24 0.98 -66.3 0 1 480.50 433.15
  L 483.97 433.11
  Q 484.59 433.10 484.58 433.71
  Q 484.47 440.07 484.52 447.18
  Q 484.53 448.65 486.05 448.67
  A 1.03 1.01 70.8 0 1 486.82 449.05
  Q 486.99 449.27 487.00 449.56
  A 0.48 0.47 -9.4 0 1 486.67 450.01
  Q 484.30 450.84 482.58 449.38
  A 0.99 0.99 0.0 0 0 481.44 449.29
  C 478.45 451.09 474.50 451.61 472.40 448.32
  C 470.35 445.09 471.10 439.12 471.15 435.34
  A 0.48 0.47 -85.0 0 0 470.76 434.87
  Z"
/>
<ellipse fill="#ffffff" cx="0.00" cy="0.00" transform="translate(385.02,441.75) rotate(90.0)" rx="7.41" ry="5.06"/>
<ellipse fill="#ffffff" cx="0.00" cy="0.00" transform="translate(435.60,441.75) rotate(90.5)" rx="7.36" ry="5.05"/>
<ellipse fill="#ffffff" cx="0.00" cy="0.00" transform="translate(518.44,441.76) rotate(91.0)" rx="7.41" ry="5.11"/>
</svg>
