<?xml version="1.0" encoding="UTF-8" standalone="no"?>
<!DOCTYPE svg PUBLIC "-//W3C//DTD SVG 1.1//EN" "http://www.w3.org/Graphics/SVG/1.1/DTD/svg11.dtd">
<svg xmlns="http://www.w3.org/2000/svg" version="1.1" viewBox="0.00 0.00 443.00 443.00" width="443.00" height="443.00">
<g stroke-width="2.00" fill="none" stroke-linecap="butt">
<path stroke="#8b96ae" vector-effect="non-scaling-stroke" d="
  M 207.59 73.26
  A 7.92 7.92 0.0 0 0 199.67 65.34
  A 7.92 7.92 0.0 0 0 191.75 73.26
  A 7.92 7.92 0.0 0 0 199.67 81.18
  A 7.92 7.92 0.0 0 0 207.59 73.26"
/>
<path stroke="#8b96ae" vector-effect="non-scaling-stroke" d="
  M 259.73 76.56
  A 7.26 7.26 0.0 0 0 252.47 69.30
  A 7.26 7.26 0.0 0 0 245.21 76.56
  A 7.26 7.26 0.0 0 0 252.47 83.82
  A 7.26 7.26 0.0 0 0 259.73 76.56"
/>
<path stroke="#8b96ae" vector-effect="non-scaling-stroke" d="
  M 192.60 118.35
  Q 200.20 115.06 206.49 118.33
  Q 207.04 118.62 207.12 117.99
  L 211.48 83.30
  A 0.30 0.30 0.0 0 0 211.07 82.99
  Q 200.29 87.70 188.67 82.96
  A 0.53 0.53 0.0 0 0 187.95 83.52
  L 192.26 118.15
  Q 192.30 118.48 192.60 118.35"
/>
<path stroke="#8b96ae" vector-effect="non-scaling-stroke" d="
  M 247.89 118.15
  C 250.02 114.65 254.69 114.66 257.15 117.90
  Q 257.67 118.59 257.77 117.73
  L 261.38 87.71
  Q 261.73 84.84 260.35 87.38
  Q 259.25 89.41 256.97 91.36
  C 251.35 96.19 246.82 91.00 243.95 86.59
  Q 243.17 85.40 243.34 86.81
  L 247.16 117.99
  Q 247.30 119.12 247.89 118.15"
/>
<path stroke="#8b96ae" vector-effect="non-scaling-stroke" d="
  M 182.20 127.36
  A 6.58 6.58 0.0 0 0 175.62 120.78
  A 6.58 6.58 0.0 0 0 169.04 127.36
  A 6.58 6.58 0.0 0 0 175.62 133.94
  A 6.58 6.58 0.0 0 0 182.20 127.36"
/>
<path stroke="#8b96ae" vector-effect="non-scaling-stroke" d="
  M 195.66 183.82
  A 0.32 0.32 0.0 0 0 195.98 184.12
  L 203.34 184.13
  A 0.32 0.32 0.0 0 0 203.66 183.83
  L 208.22 122.59
  A 0.32 0.32 0.0 0 0 207.91 122.25
  L 191.45 122.25
  A 0.32 0.32 0.0 0 0 191.14 122.59
  L 195.66 183.82"
/>
<path stroke="#8b96ae" vector-effect="non-scaling-stroke" d="
  M 250.79 180.63
  Q 250.93 182.00 251.14 183.42
  Q 251.24 184.06 251.88 184.13
  Q 252.58 184.20 253.18 184.01
  A 0.92 0.92 0.0 0 0 253.83 183.22
  L 259.69 122.74
  A 0.45 0.44 -87.6 0 0 259.25 122.25
  L 245.97 122.25
  Q 245.38 122.25 245.40 122.84
  C 245.74 130.91 246.87 138.74 247.59 146.73
  Q 249.05 162.91 250.79 180.63"
/>
<path stroke="#8b96ae" vector-effect="non-scaling-stroke" d="
  M 279.12 135.91
  A 5.91 5.91 0.0 0 0 273.21 130.00
  A 5.91 5.91 0.0 0 0 267.30 135.91
  A 5.91 5.91 0.0 0 0 273.21 141.82
  A 5.91 5.91 0.0 0 0 279.12 135.91"
/>
<path stroke="#8b96ae" vector-effect="non-scaling-stroke" d="
  M 169.25 135.43
  L 168.67 135.07
  Q 167.84 134.54 167.89 135.53
  L 168.85 154.04
  Q 168.89 154.67 169.50 154.54
  Q 175.28 153.29 181.98 154.47
  A 0.23 0.23 0.0 0 0 182.25 154.25
  L 183.37 135.41
  Q 183.41 134.82 182.88 135.06
  Q 177.17 137.59 170.20 135.84
  Q 169.69 135.71 169.25 135.43"
/>
<path stroke="#8b96ae" vector-effect="non-scaling-stroke" d="
  M 226.39 145.29
  A 5.28 5.28 0.0 0 0 221.11 140.01
  A 5.28 5.28 0.0 0 0 215.83 145.29
  A 5.28 5.28 0.0 0 0 221.11 150.57
  A 5.28 5.28 0.0 0 0 226.39 145.29"
/>
<path stroke="#8b96ae" vector-effect="non-scaling-stroke" d="
  M 266.78 143.60
  Q 266.46 143.52 266.50 143.85
  Q 267.68 153.10 267.81 160.93
  A 0.77 0.77 0.0 0 0 268.57 161.68
  L 277.68 161.76
  Q 278.38 161.77 278.43 161.07
  L 279.77 144.27
  Q 279.82 143.66 279.23 143.79
  Q 272.91 145.21 266.78 143.60"
/>
<path stroke="#8b96ae" vector-effect="non-scaling-stroke" d="
  M 240.17 154.64
  A 4.58 4.58 0.0 0 0 235.59 150.06
  A 4.58 4.58 0.0 0 0 231.01 154.64
  A 4.58 4.58 0.0 0 0 235.59 159.22
  A 4.58 4.58 0.0 0 0 240.17 154.64"
/>
<path stroke="#8b96ae" vector-effect="non-scaling-stroke" d="
  M 217.01 165.98
  A 0.30 0.30 0.0 0 0 217.31 166.26
  L 224.93 166.23
  A 0.30 0.30 0.0 0 0 225.22 165.96
  L 226.39 152.56
  A 0.30 0.30 0.0 0 0 226.10 152.24
  L 216.19 152.15
  A 0.30 0.30 0.0 0 0 215.89 152.48
  L 217.01 165.98"
/>
<path stroke="#8b96ae" vector-effect="non-scaling-stroke" d="
  M 171.63 183.84
  A 0.33 0.33 0.0 0 0 171.96 184.14
  L 179.27 184.09
  A 0.33 0.33 0.0 0 0 179.60 183.80
  L 182.18 158.18
  A 0.33 0.33 0.0 0 0 181.86 157.82
  L 169.44 157.78
  A 0.33 0.33 0.0 0 0 169.11 158.14
  L 171.63 183.84"
/>
<path stroke="#8b96ae" vector-effect="non-scaling-stroke" d="
  M 239.52 160.68
  A 0.34 0.34 0.0 0 0 239.18 160.31
  L 231.94 160.21
  A 0.34 0.34 0.0 0 0 231.59 160.58
  L 232.48 170.33
  A 0.34 0.34 0.0 0 0 232.82 170.64
  L 238.58 170.58
  A 0.34 0.34 0.0 0 0 238.92 170.26
  L 239.52 160.68"
/>
<path stroke="#8b96ae" vector-effect="non-scaling-stroke" d="
  M 269.24 183.61
  A 0.53 0.53 0.0 0 0 269.77 184.10
  L 276.72 184.11
  A 0.53 0.53 0.0 0 0 277.25 183.61
  L 278.42 164.94
  A 0.53 0.53 0.0 0 0 277.89 164.37
  L 268.41 164.43
  A 0.53 0.53 0.0 0 0 267.88 165.00
  L 269.24 183.61"
/>
<path stroke="#8b96ae" vector-effect="non-scaling-stroke" d="
  M 217.78 183.57
  A 0.55 0.55 0.0 0 0 218.33 184.09
  L 223.87 184.05
  A 0.55 0.55 0.0 0 0 224.41 183.54
  L 225.34 168.94
  A 0.55 0.55 0.0 0 0 224.79 168.36
  L 217.53 168.36
  A 0.55 0.55 0.0 0 0 216.98 168.94
  L 217.78 183.57"
/>
<path stroke="#8b96ae" vector-effect="non-scaling-stroke" d="
  M 233.28 183.61
  A 0.50 0.50 0.0 0 0 233.78 184.07
  L 237.41 184.04
  A 0.50 0.50 0.0 0 0 237.91 183.57
  L 238.75 172.81
  A 0.50 0.50 0.0 0 0 238.25 172.27
  L 232.99 172.32
  A 0.50 0.50 0.0 0 0 232.50 172.85
  L 233.28 183.61"
/>
<path stroke="#9cafd2" vector-effect="non-scaling-stroke" d="
  M 270.16 226.83
  L 270.52 207.03
  A 0.44 0.44 0.0 0 0 269.98 206.59
  Q 265.33 207.64 260.43 207.60
  A 0.81 0.80 -89.3 0 0 259.62 208.40
  L 259.62 208.67
  A 1.30 1.30 0.0 0 0 260.66 209.94
  L 263.86 210.57
  A 1.61 1.61 0.0 0 1 265.16 212.11
  Q 265.67 235.18 265.02 257.59
  A 1.98 1.98 0.0 0 1 263.47 259.46
  L 260.56 260.10
  Q 259.97 260.22 259.78 260.80
  Q 259.57 261.43 259.67 262.07
  Q 259.78 262.74 260.47 262.72
  Q 267.56 262.48 274.29 262.75
  Q 275.81 262.81 275.83 261.24
  A 0.88 0.88 0.0 0 0 275.21 260.37
  L 271.79 259.27
  A 2.02 2.01 -82.2 0 1 270.39 257.42
  Q 270.06 247.13 270.25 234.78
  C 270.37 227.27 280.62 226.48 285.86 227.59
  C 291.56 228.79 291.86 234.40 291.79 239.19
  Q 291.62 249.90 291.63 262.14
  Q 291.63 263.02 292.51 263.02
  L 301.53 263.06
  Q 302.09 263.07 302.29 262.54
  Q 302.51 261.97 302.33 261.33
  A 1.09 1.07 -2.8 0 0 301.45 260.55
  C 297.86 260.00 297.02 259.45 296.67 255.72
  Q 296.54 254.44 296.57 253.26
  Q 296.79 243.56 296.74 233.57
  Q 296.71 227.07 291.77 224.90
  Q 284.17 221.57 275.68 224.21
  C 273.76 224.81 272.39 226.08 270.81 227.18
  Q 270.14 227.64 270.16 226.83"
/>
<path stroke="#8b96ae" vector-effect="non-scaling-stroke" d="
  M 98.00 214.44
  Q 98.29 234.53 97.87 256.81
  C 97.83 258.80 96.15 259.71 94.32 259.68
  A 1.35 1.35 0.0 0 0 92.98 260.79
  L 92.90 261.22
  Q 92.65 262.65 94.10 262.65
  L 107.54 262.68
  Q 108.50 262.68 108.48 261.71
  L 108.45 260.75
  Q 108.42 259.92 107.59 259.83
  C 105.10 259.59 103.51 259.34 103.45 256.34
  Q 103.05 236.07 103.31 214.38
  A 0.61 0.60 -0.5 0 1 103.91 213.78
  Q 109.24 213.74 114.64 214.07
  C 116.90 214.21 117.23 218.01 117.47 219.72
  Q 117.57 220.46 118.33 220.47
  L 119.64 220.49
  Q 120.53 220.50 120.50 219.61
  L 120.21 210.49
  Q 120.19 209.87 119.57 209.89
  Q 102.13 210.50 81.76 209.88
  Q 81.10 209.86 81.08 210.52
  L 80.76 219.56
  Q 80.74 220.14 81.28 220.37
  Q 82.30 220.81 83.21 220.24
  Q 83.69 219.94 83.81 219.38
  C 84.20 217.49 84.29 214.35 86.78 214.11
  Q 91.93 213.61 97.36 213.80
  Q 97.99 213.82 98.00 214.44"
/>
<path stroke="#98aacb" vector-effect="non-scaling-stroke" d="
  M 240.53 227.93
  Q 240.63 241.35 240.17 255.55
  C 239.86 264.87 249.39 264.14 255.40 263.07
  Q 255.70 263.02 255.72 262.70
  L 255.93 259.09
  Q 255.95 258.76 255.63 258.85
  Q 251.69 259.95 248.22 259.28
  C 245.20 258.69 245.16 254.96 245.15 252.55
  Q 245.10 241.50 245.16 228.29
  Q 245.17 227.24 246.22 227.26
  L 255.44 227.43
  Q 256.18 227.45 256.28 226.72
  L 256.61 224.43
  Q 256.71 223.79 256.05 223.81
  L 245.84 224.20
  Q 245.20 224.22 245.21 223.58
  L 245.36 213.55
  A 0.37 0.36 80.9 0 0 244.88 213.20
  L 240.78 214.57
  Q 240.31 214.73 240.32 215.22
  L 240.39 223.63
  Q 240.39 224.15 239.87 224.14
  L 236.50 224.02
  A 0.76 0.76 0.0 0 0 235.71 224.76
  L 235.65 226.72
  Q 235.63 227.31 236.22 227.30
  L 239.81 227.24
  Q 240.52 227.23 240.53 227.93"
/>
<path stroke="#92a0bd" vector-effect="non-scaling-stroke" d="
  M 188.08 227.54
  C 190.03 227.75 192.53 228.54 194.40 227.98
  Q 194.95 227.82 195.00 227.25
  L 195.30 223.74
  Q 195.35 223.16 194.78 223.11
  Q 193.13 222.94 191.86 223.95
  A 1.94 1.92 27.2 0 1 190.56 224.36
  Q 185.00 224.03 179.54 223.38
  C 171.51 222.43 162.04 223.42 159.73 232.45
  C 158.50 237.28 158.69 243.71 162.41 247.40
  A 1.50 1.50 0.0 0 0 162.95 247.76
  Q 164.08 248.22 163.76 249.40
  Q 162.42 254.26 164.41 258.24
  Q 164.82 259.05 164.00 259.45
  Q 156.87 262.93 157.80 270.53
  C 159.18 281.89 175.41 281.43 183.88 279.70
  C 192.07 278.03 195.49 271.75 193.39 264.01
  C 192.18 259.55 187.65 257.48 183.40 257.47
  Q 177.40 257.45 171.42 257.31
  Q 168.42 257.24 167.67 254.33
  Q 167.32 252.98 167.30 252.91
  Q 166.57 250.09 169.30 250.85
  Q 174.45 252.28 180.95 250.96
  Q 191.81 248.76 191.58 236.94
  Q 191.46 230.97 187.89 227.99
  Q 187.24 227.45 188.08 227.54"
/>
<path stroke="#a2b9e0" vector-effect="non-scaling-stroke" d="
  M 353.44 228.21
  Q 353.39 226.21 353.85 224.15
  A 0.52 0.52 0.0 0 0 353.30 223.52
  L 343.49 224.33
  Q 342.62 224.41 342.74 225.27
  L 342.80 225.72
  Q 342.91 226.55 343.73 226.69
  L 346.86 227.23
  A 1.81 1.81 0.0 0 1 348.37 228.99
  Q 348.59 243.56 348.31 257.50
  Q 348.27 259.78 344.15 260.12
  A 1.54 1.53 88.4 0 0 342.74 261.62
  L 342.73 261.93
  Q 342.71 262.74 343.53 262.71
  Q 350.87 262.46 357.51 262.76
  Q 358.07 262.79 358.51 262.45
  Q 359.22 261.92 358.96 261.02
  A 1.00 0.99 -1.0 0 0 358.25 260.34
  L 354.56 259.39
  A 1.51 1.51 0.0 0 1 353.43 257.98
  Q 353.14 248.69 353.32 238.77
  C 353.42 233.34 355.72 228.00 361.60 227.22
  Q 363.13 227.02 363.51 228.51
  L 364.33 231.69
  Q 364.40 231.99 364.70 231.95
  L 366.53 231.75
  Q 366.78 231.72 366.77 231.47
  L 366.46 224.32
  Q 366.43 223.75 365.88 223.58
  C 360.49 221.98 356.82 224.21 353.92 228.35
  Q 353.46 229.01 353.44 228.21"
/>
<path stroke="#8f9bb5" vector-effect="non-scaling-stroke" d="
  M 152.6617 238.6597
  A 15.45 15.45 0.0 0 0 137.1847 223.2367
  L 133.3447 223.2434
  A 15.45 15.45 0.0 0 0 117.9217 238.7203
  L 117.9383 248.2403
  A 15.45 15.45 0.0 0 0 133.4153 263.6633
  L 137.2553 263.6566
  A 15.45 15.45 0.0 0 0 152.6783 248.1797
  L 152.6617 238.6597"
/>
<path stroke="#95a5c4" vector-effect="non-scaling-stroke" d="
  M 205.09 240.62
  L 230.34 240.71
  Q 231.24 240.71 231.26 239.81
  C 231.44 232.55 230.34 225.34 221.85 223.68
  C 215.47 222.43 207.84 222.99 203.45 228.30
  C 199.40 233.19 199.14 240.90 199.48 247.16
  C 199.93 255.48 204.11 262.38 212.98 263.35
  Q 221.29 264.26 229.46 261.78
  A 0.36 0.34 84.1 0 0 229.70 261.47
  Q 229.84 259.22 229.61 257.29
  A 0.10 0.10 0.0 0 0 229.47 257.21
  Q 223.67 259.24 218.37 259.51
  C 206.58 260.10 203.91 250.77 204.41 241.27
  Q 204.44 240.62 205.09 240.62"
/>
<path stroke="#9fb4d9" vector-effect="non-scaling-stroke" d="
  M 312.49 240.64
  L 337.85 240.71
  Q 338.54 240.71 338.53 240.02
  C 338.48 236.17 338.99 231.90 336.68 228.59
  C 333.32 223.77 327.88 222.88 322.20 223.17
  C 311.95 223.69 307.58 230.09 306.77 239.82
  C 305.82 251.12 308.32 262.72 321.86 263.51
  Q 329.76 263.96 336.87 261.69
  Q 336.94 261.67 336.95 261.60
  Q 337.40 259.89 337.04 257.24
  A 0.09 0.09 0.0 0 0 336.92 257.17
  Q 331.10 259.27 325.73 259.52
  C 313.88 260.07 311.10 250.97 311.76 241.32
  Q 311.80 240.63 312.49 240.64"
/>
<path stroke="#8490a7" vector-effect="non-scaling-stroke" d="
  M 153.69 316.28
  C 153.59 321.90 144.27 322.69 142.81 317.50
  A 0.87 0.87 0.0 0 0 141.29 317.19
  C 137.16 322.30 153.82 326.70 155.87 316.42
  C 157.60 307.71 143.52 309.72 143.92 303.48
  Q 144.11 300.62 147.42 300.04
  Q 152.00 299.24 152.70 303.11
  Q 152.91 304.26 153.83 303.55
  Q 154.16 303.30 154.38 302.95
  Q 155.07 301.86 154.61 300.66
  C 153.26 297.12 147.19 297.89 144.67 299.15
  C 139.99 301.51 140.95 306.87 145.20 309.26
  Q 147.77 310.71 150.73 311.99
  Q 153.74 313.29 153.69 316.28"
/>
<path stroke="#8490a7" vector-effect="non-scaling-stroke" d="
  M 165.1830 322.8708
  A 9.17 7.58 95.3 0 0 173.5776 314.4402
  A 9.17 7.58 95.3 0 0 166.8770 304.6092
  A 9.17 7.58 95.3 0 0 158.4824 313.0398
  A 9.17 7.58 95.3 0 0 165.1830 322.8708"
/>
<path stroke="#8490a7" vector-effect="non-scaling-stroke" d="
  M 181.30 306.25
  L 181.21 305.39
  Q 181.14 304.63 180.38 304.72
  L 177.61 305.08
  Q 175.82 305.30 177.28 306.36
  Q 177.93 306.83 178.72 306.90
  Q 179.26 306.95 179.26 307.49
  L 179.25 320.00
  Q 179.24 320.56 178.69 320.65
  Q 177.93 320.78 177.34 321.31
  Q 176.26 322.27 177.70 322.26
  L 183.74 322.23
  A 0.47 0.47 0.0 0 0 184.21 321.75
  L 184.20 321.40
  Q 184.19 321.03 183.82 321.03
  Q 182.74 321.03 181.92 320.65
  A 0.73 0.72 13.2 0 1 181.50 319.98
  L 181.50 309.70
  A 1.43 1.41 -19.6 0 1 182.04 308.59
  C 185.02 306.21 190.40 305.96 190.47 311.15
  Q 190.51 315.20 190.60 319.62
  Q 190.61 320.08 190.31 320.43
  Q 189.67 321.16 188.43 321.19
  Q 188.23 321.20 188.18 321.39
  L 188.02 321.91
  Q 187.90 322.28 188.30 322.27
  Q 191.45 322.21 194.64 322.29
  Q 195.03 322.31 195.29 322.02
  Q 195.43 321.87 195.43 321.66
  Q 195.43 321.11 194.90 320.99
  L 193.27 320.60
  Q 192.82 320.49 192.82 320.03
  L 192.75 309.61
  Q 192.75 309.11 193.12 308.77
  C 196.13 306.05 201.23 305.44 201.64 311.01
  Q 201.93 315.13 201.76 319.86
  Q 201.73 320.52 201.11 320.75
  Q 200.46 321.00 199.77 321.35
  Q 199.45 321.50 199.40 321.82
  Q 199.33 322.26 199.77 322.26
  L 206.22 322.24
  A 0.44 0.43 -89.3 0 0 206.65 321.81
  L 206.65 321.51
  Q 206.66 320.99 206.14 321.01
  Q 205.25 321.04 204.53 320.70
  A 0.96 0.96 0.0 0 1 203.98 319.80
  Q 204.14 314.88 203.90 310.55
  C 203.51 303.77 196.37 303.15 192.43 307.47
  A 0.46 0.46 0.0 0 1 191.70 307.41
  C 189.53 303.99 185.31 303.93 182.22 306.62
  Q 181.41 307.32 181.30 306.25"
/>
<path stroke="#8490a7" vector-effect="non-scaling-stroke" d="
  M 215.7470 322.8193
  A 9.17 7.58 95.4 0 0 224.1564 314.4033
  A 9.17 7.58 95.4 0 0 217.4730 304.5607
  A 9.17 7.58 95.4 0 0 209.0636 312.9767
  A 9.17 7.58 95.4 0 0 215.7470 322.8193"
/>
<path stroke="#8693ae" vector-effect="non-scaling-stroke" d="
  M 235.16 307.72
  L 235.37 308.57
  Q 235.57 309.36 236.33 309.06
  Q 237.62 308.54 237.67 307.01
  A 1.64 1.63 12.1 0 0 236.64 305.42
  Q 232.56 303.78 229.26 305.67
  C 227.04 306.94 226.16 310.21 228.03 312.28
  C 229.53 313.94 232.75 314.80 234.76 315.71
  C 239.89 318.02 231.99 324.54 228.17 318.53
  Q 227.82 317.98 227.21 318.22
  Q 226.49 318.50 226.42 319.30
  C 226.18 322.44 231.23 322.82 233.29 322.62
  Q 237.22 322.22 238.28 318.25
  C 238.80 316.28 237.91 314.32 236.03 313.51
  Q 233.09 312.24 229.95 310.74
  A 1.67 1.65 -77.3 0 1 229.01 309.24
  C 229.01 306.67 232.65 306.09 234.34 306.77
  Q 234.99 307.03 235.16 307.72"
/>
<path stroke="#8490a7" vector-effect="non-scaling-stroke" d="
  M 273.26 307.48
  L 273.25 319.92
  Q 273.25 320.51 272.69 320.69
  L 271.08 321.20
  Q 270.79 321.29 270.73 321.59
  Q 270.70 321.73 270.74 321.86
  A 0.53 0.53 0.0 0 0 271.25 322.24
  L 277.00 322.26
  Q 278.24 322.26 277.51 321.26
  Q 277.01 320.57 276.28 320.67
  Q 275.49 320.78 275.49 319.99
  L 275.51 309.56
  Q 275.51 309.05 275.90 308.73
  C 278.34 306.73 284.42 304.89 284.68 310.27
  Q 284.89 314.58 284.93 319.77
  Q 284.93 320.23 284.55 320.50
  Q 283.65 321.14 282.38 321.41
  Q 282.32 321.42 282.32 321.48
  L 282.32 321.79
  Q 282.33 322.25 282.78 322.25
  L 288.99 322.24
  A 0.46 0.46 0.0 0 0 289.45 321.79
  L 289.45 321.48
  Q 289.45 321.14 289.13 321.07
  L 287.58 320.70
  Q 286.91 320.54 286.97 319.86
  Q 287.43 314.00 286.86 309.71
  C 286.00 303.31 279.74 303.96 275.87 307.16
  A 0.34 0.34 0.0 0 1 275.32 306.96
  L 275.02 305.26
  Q 274.91 304.61 274.26 304.72
  L 271.12 305.21
  Q 269.62 305.45 270.90 306.26
  Q 271.60 306.70 272.48 306.70
  Q 273.26 306.70 273.26 307.48"
/>
<path stroke="#8490a7" vector-effect="non-scaling-stroke" d="
  M 298.4894 322.8497
  A 9.19 7.55 96.0 0 0 306.9586 314.4992
  A 9.19 7.55 96.0 0 0 300.4106 304.5703
  A 9.19 7.55 96.0 0 0 291.9414 312.9208
  A 9.19 7.55 96.0 0 0 298.4894 322.8497"
/>
<path stroke="#8693ae" vector-effect="non-scaling-stroke" d="
  M 259.72 320.52
  Q 259.02 320.53 258.31 320.53
  Q 254.49 320.54 254.49 316.71
  L 254.51 305.76
  Q 254.51 305.22 253.98 305.17
  Q 252.22 305.01 250.65 305.16
  Q 248.27 305.38 250.21 306.78
  Q 250.37 306.90 251.26 306.78
  A 0.86 0.85 -1.9 0 1 252.23 307.68
  Q 251.78 313.61 252.45 317.77
  C 253.30 323.08 258.55 323.88 262.45 321.23
  Q 262.88 320.94 263.34 321.18
  Q 263.62 321.32 263.80 321.57
  Q 264.08 321.97 264.56 322.08
  Q 265.99 322.42 267.53 322.08
  Q 267.98 321.98 268.03 321.53
  Q 268.08 321.21 267.84 320.99
  C 267.42 320.58 266.45 320.68 265.85 320.31
  Q 265.51 320.09 265.51 319.68
  L 265.52 305.68
  Q 265.52 305.08 264.93 305.10
  L 261.08 305.22
  A 0.60 0.59 -22.4 0 0 260.66 306.22
  Q 261.41 307.03 262.63 306.65
  A 0.61 0.60 83.4 0 1 263.41 307.27
  Q 263.10 311.99 263.31 316.77
  Q 263.47 320.52 259.72 320.52"
/>
<path stroke="#92a0bd" vector-effect="non-scaling-stroke" d="
  M 186.3358 235.4759
  A 8.50 8.50 0.0 0 0 177.9103 226.9020
  L 172.9505 226.8588
  A 8.50 8.50 0.0 0 0 164.3766 235.2843
  L 164.3442 239.0041
  A 8.50 8.50 0.0 0 0 172.7697 247.5780
  L 177.7295 247.6212
  A 8.50 8.50 0.0 0 0 186.3034 239.1957
  L 186.3358 235.4759"
/>
<path stroke="#92a0bd" vector-effect="non-scaling-stroke" d="
  M 172.80 262.13
  C 170.75 262.17 168.46 261.04 166.56 261.98
  C 160.45 264.97 161.76 273.78 168.14 275.63
  C 175.02 277.61 190.95 278.01 188.80 266.53
  C 188.27 263.69 185.18 262.38 182.59 262.26
  Q 177.81 262.05 172.80 262.13"
/>
<path stroke="#8f9bb5" vector-effect="non-scaling-stroke" d="
  M 147.4082 238.2423
  A 11.17 11.17 0.0 0 0 136.2773 227.0333
  L 134.4173 227.0269
  A 11.17 11.17 0.0 0 0 123.2084 238.1578
  L 123.1718 248.6377
  A 11.17 11.17 0.0 0 0 134.3027 259.8467
  L 136.1627 259.8531
  A 11.17 11.17 0.0 0 0 147.3716 248.7222
  L 147.4082 238.2423"
/>
<path stroke="#95a5c4" vector-effect="non-scaling-stroke" d="
  M 205.63 237.60
  L 225.82 237.36
  A 0.57 0.57 0.0 0 0 226.39 236.78
  L 226.37 235.55
  A 8.94 8.94 0.0 0 0 217.32 226.72
  L 213.86 226.76
  A 8.94 8.94 0.0 0 0 205.03 235.81
  L 205.05 237.04
  A 0.57 0.57 0.0 0 0 205.63 237.60"
/>
<path stroke="#9fb4d9" vector-effect="non-scaling-stroke" d="
  M 312.96 237.56
  L 333.16 237.42
  A 0.63 0.63 0.0 0 0 333.78 236.78
  L 333.78 235.70
  A 9.02 9.00 89.6 0 0 324.71 226.74
  L 321.25 226.76
  A 9.02 9.00 89.6 0 0 312.32 235.84
  L 312.32 236.93
  A 0.63 0.63 0.0 0 0 312.96 237.56"
/>
<path stroke="#8490a7" vector-effect="non-scaling-stroke" d="
  M 166.0071 321.1700
  A 7.40 5.09 90.1 0 0 171.1100 313.7789
  A 7.40 5.09 90.1 0 0 166.0329 306.3700
  A 7.40 5.09 90.1 0 0 160.9300 313.7611
  A 7.40 5.09 90.1 0 0 166.0071 321.1700"
/>
<path stroke="#8490a7" vector-effect="non-scaling-stroke" d="
  M 216.5414 321.0899
  A 7.37 5.04 90.3 0 0 221.6199 313.7464
  A 7.37 5.04 90.3 0 0 216.6186 306.3501
  A 7.37 5.04 90.3 0 0 211.5401 313.6936
  A 7.37 5.04 90.3 0 0 216.5414 321.0899"
/>
<path stroke="#8490a7" vector-effect="non-scaling-stroke" d="
  M 299.3038 321.1691
  A 7.40 5.09 90.9 0 0 304.5094 313.8500
  A 7.40 5.09 90.9 0 0 299.5362 306.3709
  A 7.40 5.09 90.9 0 0 294.3306 313.6900
  A 7.40 5.09 90.9 0 0 299.3038 321.1691"
/>
</g>
<path fill="#ffffff" d="
  M 0.00 0.00
  L 443.00 0.00
  L 443.00 443.00
  L 0.00 443.00
  L 0.00 0.00
  Z
  M 207.59 73.26
  A 7.92 7.92 0.0 0 0 199.67 65.34
  A 7.92 7.92 0.0 0 0 191.75 73.26
  A 7.92 7.92 0.0 0 0 199.67 81.18
  A 7.92 7.92 0.0 0 0 207.59 73.26
  Z
  M 259.73 76.56
  A 7.26 7.26 0.0 0 0 252.47 69.30
  A 7.26 7.26 0.0 0 0 245.21 76.56
  A 7.26 7.26 0.0 0 0 252.47 83.82
  A 7.26 7.26 0.0 0 0 259.73 76.56
  Z
  M 192.60 118.35
  Q 200.20 115.06 206.49 118.33
  Q 207.04 118.62 207.12 117.99
  L 211.48 83.30
  A 0.30 0.30 0.0 0 0 211.07 82.99
  Q 200.29 87.70 188.67 82.96
  A 0.53 0.53 0.0 0 0 187.95 83.52
  L 192.26 118.15
  Q 192.30 118.48 192.60 118.35
  Z
  M 247.89 118.15
  C 250.02 114.65 254.69 114.66 257.15 117.90
  Q 257.67 118.59 257.77 117.73
  L 261.38 87.71
  Q 261.73 84.84 260.35 87.38
  Q 259.25 89.41 256.97 91.36
  C 251.35 96.19 246.82 91.00 243.95 86.59
  Q 243.17 85.40 243.34 86.81
  L 247.16 117.99
  Q 247.30 119.12 247.89 118.15
  Z
  M 182.20 127.36
  A 6.58 6.58 0.0 0 0 175.62 120.78
  A 6.58 6.58 0.0 0 0 169.04 127.36
  A 6.58 6.58 0.0 0 0 175.62 133.94
  A 6.58 6.58 0.0 0 0 182.20 127.36
  Z
  M 195.66 183.82
  A 0.32 0.32 0.0 0 0 195.98 184.12
  L 203.34 184.13
  A 0.32 0.32 0.0 0 0 203.66 183.83
  L 208.22 122.59
  A 0.32 0.32 0.0 0 0 207.91 122.25
  L 191.45 122.25
  A 0.32 0.32 0.0 0 0 191.14 122.59
  L 195.66 183.82
  Z
  M 250.79 180.63
  Q 250.93 182.00 251.14 183.42
  Q 251.24 184.06 251.88 184.13
  Q 252.58 184.20 253.18 184.01
  A 0.92 0.92 0.0 0 0 253.83 183.22
  L 259.69 122.74
  A 0.45 0.44 -87.6 0 0 259.25 122.25
  L 245.97 122.25
  Q 245.38 122.25 245.40 122.84
  C 245.74 130.91 246.87 138.74 247.59 146.73
  Q 249.05 162.91 250.79 180.63
  Z
  M 279.12 135.91
  A 5.91 5.91 0.0 0 0 273.21 130.00
  A 5.91 5.91 0.0 0 0 267.30 135.91
  A 5.91 5.91 0.0 0 0 273.21 141.82
  A 5.91 5.91 0.0 0 0 279.12 135.91
  Z
  M 169.25 135.43
  L 168.67 135.07
  Q 167.84 134.54 167.89 135.53
  L 168.85 154.04
  Q 168.89 154.67 169.50 154.54
  Q 175.28 153.29 181.98 154.47
  A 0.23 0.23 0.0 0 0 182.25 154.25
  L 183.37 135.41
  Q 183.41 134.82 182.88 135.06
  Q 177.17 137.59 170.20 135.84
  Q 169.69 135.71 169.25 135.43
  Z
  M 226.39 145.29
  A 5.28 5.28 0.0 0 0 221.11 140.01
  A 5.28 5.28 0.0 0 0 215.83 145.29
  A 5.28 5.28 0.0 0 0 221.11 150.57
  A 5.28 5.28 0.0 0 0 226.39 145.29
  Z
  M 266.78 143.60
  Q 266.46 143.52 266.50 143.85
  Q 267.68 153.10 267.81 160.93
  A 0.77 0.77 0.0 0 0 268.57 161.68
  L 277.68 161.76
  Q 278.38 161.77 278.43 161.07
  L 279.77 144.27
  Q 279.82 143.66 279.23 143.79
  Q 272.91 145.21 266.78 143.60
  Z
  M 240.17 154.64
  A 4.58 4.58 0.0 0 0 235.59 150.06
  A 4.58 4.58 0.0 0 0 231.01 154.64
  A 4.58 4.58 0.0 0 0 235.59 159.22
  A 4.58 4.58 0.0 0 0 240.17 154.64
  Z
  M 217.01 165.98
  A 0.30 0.30 0.0 0 0 217.31 166.26
  L 224.93 166.23
  A 0.30 0.30 0.0 0 0 225.22 165.96
  L 226.39 152.56
  A 0.30 0.30 0.0 0 0 226.10 152.24
  L 216.19 152.15
  A 0.30 0.30 0.0 0 0 215.89 152.48
  L 217.01 165.98
  Z
  M 171.63 183.84
  A 0.33 0.33 0.0 0 0 171.96 184.14
  L 179.27 184.09
  A 0.33 0.33 0.0 0 0 179.60 183.80
  L 182.18 158.18
  A 0.33 0.33 0.0 0 0 181.86 157.82
  L 169.44 157.78
  A 0.33 0.33 0.0 0 0 169.11 158.14
  L 171.63 183.84
  Z
  M 239.52 160.68
  A 0.34 0.34 0.0 0 0 239.18 160.31
  L 231.94 160.21
  A 0.34 0.34 0.0 0 0 231.59 160.58
  L 232.48 170.33
  A 0.34 0.34 0.0 0 0 232.82 170.64
  L 238.58 170.58
  A 0.34 0.34 0.0 0 0 238.92 170.26
  L 239.52 160.68
  Z
  M 269.24 183.61
  A 0.53 0.53 0.0 0 0 269.77 184.10
  L 276.72 184.11
  A 0.53 0.53 0.0 0 0 277.25 183.61
  L 278.42 164.94
  A 0.53 0.53 0.0 0 0 277.89 164.37
  L 268.41 164.43
  A 0.53 0.53 0.0 0 0 267.88 165.00
  L 269.24 183.61
  Z
  M 217.78 183.57
  A 0.55 0.55 0.0 0 0 218.33 184.09
  L 223.87 184.05
  A 0.55 0.55 0.0 0 0 224.41 183.54
  L 225.34 168.94
  A 0.55 0.55 0.0 0 0 224.79 168.36
  L 217.53 168.36
  A 0.55 0.55 0.0 0 0 216.98 168.94
  L 217.78 183.57
  Z
  M 233.28 183.61
  A 0.50 0.50 0.0 0 0 233.78 184.07
  L 237.41 184.04
  A 0.50 0.50 0.0 0 0 237.91 183.57
  L 238.75 172.81
  A 0.50 0.50 0.0 0 0 238.25 172.27
  L 232.99 172.32
  A 0.50 0.50 0.0 0 0 232.50 172.85
  L 233.28 183.61
  Z
  M 270.16 226.83
  L 270.52 207.03
  A 0.44 0.44 0.0 0 0 269.98 206.59
  Q 265.33 207.64 260.43 207.60
  A 0.81 0.80 -89.3 0 0 259.62 208.40
  L 259.62 208.67
  A 1.30 1.30 0.0 0 0 260.66 209.94
  L 263.86 210.57
  A 1.61 1.61 0.0 0 1 265.16 212.11
  Q 265.67 235.18 265.02 257.59
  A 1.98 1.98 0.0 0 1 263.47 259.46
  L 260.56 260.10
  Q 259.97 260.22 259.78 260.80
  Q 259.57 261.43 259.67 262.07
  Q 259.78 262.74 260.47 262.72
  Q 267.56 262.48 274.29 262.75
  Q 275.81 262.81 275.83 261.24
  A 0.88 0.88 0.0 0 0 275.21 260.37
  L 271.79 259.27
  A 2.02 2.01 -82.2 0 1 270.39 257.42
  Q 270.06 247.13 270.25 234.78
  C 270.37 227.27 280.62 226.48 285.86 227.59
  C 291.56 228.79 291.86 234.40 291.79 239.19
  Q 291.62 249.90 291.63 262.14
  Q 291.63 263.02 292.51 263.02
  L 301.53 263.06
  Q 302.09 263.07 302.29 262.54
  Q 302.51 261.97 302.33 261.33
  A 1.09 1.07 -2.8 0 0 301.45 260.55
  C 297.86 260.00 297.02 259.45 296.67 255.72
  Q 296.54 254.44 296.57 253.26
  Q 296.79 243.56 296.74 233.57
  Q 296.71 227.07 291.77 224.90
  Q 284.17 221.57 275.68 224.21
  C 273.76 224.81 272.39 226.08 270.81 227.18
  Q 270.14 227.64 270.16 226.83
  Z
  M 98.00 214.44
  Q 98.29 234.53 97.87 256.81
  C 97.83 258.80 96.15 259.71 94.32 259.68
  A 1.35 1.35 0.0 0 0 92.98 260.79
  L 92.90 261.22
  Q 92.65 262.65 94.10 262.65
  L 107.54 262.68
  Q 108.50 262.68 108.48 261.71
  L 108.45 260.75
  Q 108.42 259.92 107.59 259.83
  C 105.10 259.59 103.51 259.34 103.45 256.34
  Q 103.05 236.07 103.31 214.38
  A 0.61 0.60 -0.5 0 1 103.91 213.78
  Q 109.24 213.74 114.64 214.07
  C 116.90 214.21 117.23 218.01 117.47 219.72
  Q 117.57 220.46 118.33 220.47
  L 119.64 220.49
  Q 120.53 220.50 120.50 219.61
  L 120.21 210.49
  Q 120.19 209.87 119.57 209.89
  Q 102.13 210.50 81.76 209.88
  Q 81.10 209.86 81.08 210.52
  L 80.76 219.56
  Q 80.74 220.14 81.28 220.37
  Q 82.30 220.81 83.21 220.24
  Q 83.69 219.94 83.81 219.38
  C 84.20 217.49 84.29 214.35 86.78 214.11
  Q 91.93 213.61 97.36 213.80
  Q 97.99 213.82 98.00 214.44
  Z
  M 240.53 227.93
  Q 240.63 241.35 240.17 255.55
  C 239.86 264.87 249.39 264.14 255.40 263.07
  Q 255.70 263.02 255.72 262.70
  L 255.93 259.09
  Q 255.95 258.76 255.63 258.85
  Q 251.69 259.95 248.22 259.28
  C 245.20 258.69 245.16 254.96 245.15 252.55
  Q 245.10 241.50 245.16 228.29
  Q 245.17 227.24 246.22 227.26
  L 255.44 227.43
  Q 256.18 227.45 256.28 226.72
  L 256.61 224.43
  Q 256.71 223.79 256.05 223.81
  L 245.84 224.20
  Q 245.20 224.22 245.21 223.58
  L 245.36 213.55
  A 0.37 0.36 80.9 0 0 244.88 213.20
  L 240.78 214.57
  Q 240.31 214.73 240.32 215.22
  L 240.39 223.63
  Q 240.39 224.15 239.87 224.14
  L 236.50 224.02
  A 0.76 0.76 0.0 0 0 235.71 224.76
  L 235.65 226.72
  Q 235.63 227.31 236.22 227.30
  L 239.81 227.24
  Q 240.52 227.23 240.53 227.93
  Z
  M 188.08 227.54
  C 190.03 227.75 192.53 228.54 194.40 227.98
  Q 194.95 227.82 195.00 227.25
  L 195.30 223.74
  Q 195.35 223.16 194.78 223.11
  Q 193.13 222.94 191.86 223.95
  A 1.94 1.92 27.2 0 1 190.56 224.36
  Q 185.00 224.03 179.54 223.38
  C 171.51 222.43 162.04 223.42 159.73 232.45
  C 158.50 237.28 158.69 243.71 162.41 247.40
  A 1.50 1.50 0.0 0 0 162.95 247.76
  Q 164.08 248.22 163.76 249.40
  Q 162.42 254.26 164.41 258.24
  Q 164.82 259.05 164.00 259.45
  Q 156.87 262.93 157.80 270.53
  C 159.18 281.89 175.41 281.43 183.88 279.70
  C 192.07 278.03 195.49 271.75 193.39 264.01
  C 192.18 259.55 187.65 257.48 183.40 257.47
  Q 177.40 257.45 171.42 257.31
  Q 168.42 257.24 167.67 254.33
  Q 167.32 252.98 167.30 252.91
  Q 166.57 250.09 169.30 250.85
  Q 174.45 252.28 180.95 250.96
  Q 191.81 248.76 191.58 236.94
  Q 191.46 230.97 187.89 227.99
  Q 187.24 227.45 188.08 227.54
  Z
  M 353.44 228.21
  Q 353.39 226.21 353.85 224.15
  A 0.52 0.52 0.0 0 0 353.30 223.52
  L 343.49 224.33
  Q 342.62 224.41 342.74 225.27
  L 342.80 225.72
  Q 342.91 226.55 343.73 226.69
  L 346.86 227.23
  A 1.81 1.81 0.0 0 1 348.37 228.99
  Q 348.59 243.56 348.31 257.50
  Q 348.27 259.78 344.15 260.12
  A 1.54 1.53 88.4 0 0 342.74 261.62
  L 342.73 261.93
  Q 342.71 262.74 343.53 262.71
  Q 350.87 262.46 357.51 262.76
  Q 358.07 262.79 358.51 262.45
  Q 359.22 261.92 358.96 261.02
  A 1.00 0.99 -1.0 0 0 358.25 260.34
  L 354.56 259.39
  A 1.51 1.51 0.0 0 1 353.43 257.98
  Q 353.14 248.69 353.32 238.77
  C 353.42 233.34 355.72 228.00 361.60 227.22
  Q 363.13 227.02 363.51 228.51
  L 364.33 231.69
  Q 364.40 231.99 364.70 231.95
  L 366.53 231.75
  Q 366.78 231.72 366.77 231.47
  L 366.46 224.32
  Q 366.43 223.75 365.88 223.58
  C 360.49 221.98 356.82 224.21 353.92 228.35
  Q 353.46 229.01 353.44 228.21
  Z
  M 152.6617 238.6597
  A 15.45 15.45 0.0 0 0 137.1847 223.2367
  L 133.3447 223.2434
  A 15.45 15.45 0.0 0 0 117.9217 238.7203
  L 117.9383 248.2403
  A 15.45 15.45 0.0 0 0 133.4153 263.6633
  L 137.2553 263.6566
  A 15.45 15.45 0.0 0 0 152.6783 248.1797
  L 152.6617 238.6597
  Z
  M 205.09 240.62
  L 230.34 240.71
  Q 231.24 240.71 231.26 239.81
  C 231.44 232.55 230.34 225.34 221.85 223.68
  C 215.47 222.43 207.84 222.99 203.45 228.30
  C 199.40 233.19 199.14 240.90 199.48 247.16
  C 199.93 255.48 204.11 262.38 212.98 263.35
  Q 221.29 264.26 229.46 261.78
  A 0.36 0.34 84.1 0 0 229.70 261.47
  Q 229.84 259.22 229.61 257.29
  A 0.10 0.10 0.0 0 0 229.47 257.21
  Q 223.67 259.24 218.37 259.51
  C 206.58 260.10 203.91 250.77 204.41 241.27
  Q 204.44 240.62 205.09 240.62
  Z
  M 312.49 240.64
  L 337.85 240.71
  Q 338.54 240.71 338.53 240.02
  C 338.48 236.17 338.99 231.90 336.68 228.59
  C 333.32 223.77 327.88 222.88 322.20 223.17
  C 311.95 223.69 307.58 230.09 306.77 239.82
  C 305.82 251.12 308.32 262.72 321.86 263.51
  Q 329.76 263.96 336.87 261.69
  Q 336.94 261.67 336.95 261.60
  Q 337.40 259.89 337.04 257.24
  A 0.09 0.09 0.0 0 0 336.92 257.17
  Q 331.10 259.27 325.73 259.52
  C 313.88 260.07 311.10 250.97 311.76 241.32
  Q 311.80 240.63 312.49 240.64
  Z
  M 153.69 316.28
  C 153.59 321.90 144.27 322.69 142.81 317.50
  A 0.87 0.87 0.0 0 0 141.29 317.19
  C 137.16 322.30 153.82 326.70 155.87 316.42
  C 157.60 307.71 143.52 309.72 143.92 303.48
  Q 144.11 300.62 147.42 300.04
  Q 152.00 299.24 152.70 303.11
  Q 152.91 304.26 153.83 303.55
  Q 154.16 303.30 154.38 302.95
  Q 155.07 301.86 154.61 300.66
  C 153.26 297.12 147.19 297.89 144.67 299.15
  C 139.99 301.51 140.95 306.87 145.20 309.26
  Q 147.77 310.71 150.73 311.99
  Q 153.74 313.29 153.69 316.28
  Z
  M 165.1830 322.8708
  A 9.17 7.58 95.3 0 0 173.5776 314.4402
  A 9.17 7.58 95.3 0 0 166.8770 304.6092
  A 9.17 7.58 95.3 0 0 158.4824 313.0398
  A 9.17 7.58 95.3 0 0 165.1830 322.8708
  Z
  M 181.30 306.25
  L 181.21 305.39
  Q 181.14 304.63 180.38 304.72
  L 177.61 305.08
  Q 175.82 305.30 177.28 306.36
  Q 177.93 306.83 178.72 306.90
  Q 179.26 306.95 179.26 307.49
  L 179.25 320.00
  Q 179.24 320.56 178.69 320.65
  Q 177.93 320.78 177.34 321.31
  Q 176.26 322.27 177.70 322.26
  L 183.74 322.23
  A 0.47 0.47 0.0 0 0 184.21 321.75
  L 184.20 321.40
  Q 184.19 321.03 183.82 321.03
  Q 182.74 321.03 181.92 320.65
  A 0.73 0.72 13.2 0 1 181.50 319.98
  L 181.50 309.70
  A 1.43 1.41 -19.6 0 1 182.04 308.59
  C 185.02 306.21 190.40 305.96 190.47 311.15
  Q 190.51 315.20 190.60 319.62
  Q 190.61 320.08 190.31 320.43
  Q 189.67 321.16 188.43 321.19
  Q 188.23 321.20 188.18 321.39
  L 188.02 321.91
  Q 187.90 322.28 188.30 322.27
  Q 191.45 322.21 194.64 322.29
  Q 195.03 322.31 195.29 322.02
  Q 195.43 321.87 195.43 321.66
  Q 195.43 321.11 194.90 320.99
  L 193.27 320.60
  Q 192.82 320.49 192.82 320.03
  L 192.75 309.61
  Q 192.75 309.11 193.12 308.77
  C 196.13 306.05 201.23 305.44 201.64 311.01
  Q 201.93 315.13 201.76 319.86
  Q 201.73 320.52 201.11 320.75
  Q 200.46 321.00 199.77 321.35
  Q 199.45 321.50 199.40 321.82
  Q 199.33 322.26 199.77 322.26
  L 206.22 322.24
  A 0.44 0.43 -89.3 0 0 206.65 321.81
  L 206.65 321.51
  Q 206.66 320.99 206.14 321.01
  Q 205.25 321.04 204.53 320.70
  A 0.96 0.96 0.0 0 1 203.98 319.80
  Q 204.14 314.88 203.90 310.55
  C 203.51 303.77 196.37 303.15 192.43 307.47
  A 0.46 0.46 0.0 0 1 191.70 307.41
  C 189.53 303.99 185.31 303.93 182.22 306.62
  Q 181.41 307.32 181.30 306.25
  Z
  M 215.7470 322.8193
  A 9.17 7.58 95.4 0 0 224.1564 314.4033
  A 9.17 7.58 95.4 0 0 217.4730 304.5607
  A 9.17 7.58 95.4 0 0 209.0636 312.9767
  A 9.17 7.58 95.4 0 0 215.7470 322.8193
  Z
  M 235.16 307.72
  L 235.37 308.57
  Q 235.57 309.36 236.33 309.06
  Q 237.62 308.54 237.67 307.01
  A 1.64 1.63 12.1 0 0 236.64 305.42
  Q 232.56 303.78 229.26 305.67
  C 227.04 306.94 226.16 310.21 228.03 312.28
  C 229.53 313.94 232.75 314.80 234.76 315.71
  C 239.89 318.02 231.99 324.54 228.17 318.53
  Q 227.82 317.98 227.21 318.22
  Q 226.49 318.50 226.42 319.30
  C 226.18 322.44 231.23 322.82 233.29 322.62
  Q 237.22 322.22 238.28 318.25
  C 238.80 316.28 237.91 314.32 236.03 313.51
  Q 233.09 312.24 229.95 310.74
  A 1.67 1.65 -77.3 0 1 229.01 309.24
  C 229.01 306.67 232.65 306.09 234.34 306.77
  Q 234.99 307.03 235.16 307.72
  Z
  M 273.26 307.48
  L 273.25 319.92
  Q 273.25 320.51 272.69 320.69
  L 271.08 321.20
  Q 270.79 321.29 270.73 321.59
  Q 270.70 321.73 270.74 321.86
  A 0.53 0.53 0.0 0 0 271.25 322.24
  L 277.00 322.26
  Q 278.24 322.26 277.51 321.26
  Q 277.01 320.57 276.28 320.67
  Q 275.49 320.78 275.49 319.99
  L 275.51 309.56
  Q 275.51 309.05 275.90 308.73
  C 278.34 306.73 284.42 304.89 284.68 310.27
  Q 284.89 314.58 284.93 319.77
  Q 284.93 320.23 284.55 320.50
  Q 283.65 321.14 282.38 321.41
  Q 282.32 321.42 282.32 321.48
  L 282.32 321.79
  Q 282.33 322.25 282.78 322.25
  L 288.99 322.24
  A 0.46 0.46 0.0 0 0 289.45 321.79
  L 289.45 321.48
  Q 289.45 321.14 289.13 321.07
  L 287.58 320.70
  Q 286.91 320.54 286.97 319.86
  Q 287.43 314.00 286.86 309.71
  C 286.00 303.31 279.74 303.96 275.87 307.16
  A 0.34 0.34 0.0 0 1 275.32 306.96
  L 275.02 305.26
  Q 274.91 304.61 274.26 304.72
  L 271.12 305.21
  Q 269.62 305.45 270.90 306.26
  Q 271.60 306.70 272.48 306.70
  Q 273.26 306.70 273.26 307.48
  Z
  M 298.4894 322.8497
  A 9.19 7.55 96.0 0 0 306.9586 314.4992
  A 9.19 7.55 96.0 0 0 300.4106 304.5703
  A 9.19 7.55 96.0 0 0 291.9414 312.9208
  A 9.19 7.55 96.0 0 0 298.4894 322.8497
  Z
  M 259.72 320.52
  Q 259.02 320.53 258.31 320.53
  Q 254.49 320.54 254.49 316.71
  L 254.51 305.76
  Q 254.51 305.22 253.98 305.17
  Q 252.22 305.01 250.65 305.16
  Q 248.27 305.38 250.21 306.78
  Q 250.37 306.90 251.26 306.78
  A 0.86 0.85 -1.9 0 1 252.23 307.68
  Q 251.78 313.61 252.45 317.77
  C 253.30 323.08 258.55 323.88 262.45 321.23
  Q 262.88 320.94 263.34 321.18
  Q 263.62 321.32 263.80 321.57
  Q 264.08 321.97 264.56 322.08
  Q 265.99 322.42 267.53 322.08
  Q 267.98 321.98 268.03 321.53
  Q 268.08 321.21 267.84 320.99
  C 267.42 320.58 266.45 320.68 265.85 320.31
  Q 265.51 320.09 265.51 319.68
  L 265.52 305.68
  Q 265.52 305.08 264.93 305.10
  L 261.08 305.22
  A 0.60 0.59 -22.4 0 0 260.66 306.22
  Q 261.41 307.03 262.63 306.65
  A 0.61 0.60 83.4 0 1 263.41 307.27
  Q 263.10 311.99 263.31 316.77
  Q 263.47 320.52 259.72 320.52
  Z"
/>
<circle fill="#172c5d" cx="199.67" cy="73.26" r="7.92"/>
<circle fill="#172c5d" cx="252.47" cy="76.56" r="7.26"/>
<path fill="#172c5d" d="
  M 192.60 118.35
  Q 192.30 118.48 192.26 118.15
  L 187.95 83.52
  A 0.53 0.53 0.0 0 1 188.67 82.96
  Q 200.29 87.70 211.07 82.99
  A 0.30 0.30 0.0 0 1 211.48 83.30
  L 207.12 117.99
  Q 207.04 118.62 206.49 118.33
  Q 200.20 115.06 192.60 118.35
  Z"
/>
<path fill="#172c5d" d="
  M 257.15 117.90
  C 254.69 114.66 250.02 114.65 247.89 118.15
  Q 247.30 119.12 247.16 117.99
  L 243.34 86.81
  Q 243.17 85.40 243.95 86.59
  C 246.82 91.00 251.35 96.19 256.97 91.36
  Q 259.25 89.41 260.35 87.38
  Q 261.73 84.84 261.38 87.71
  L 257.77 117.73
  Q 257.67 118.59 257.15 117.90
  Z"
/>
<circle fill="#172c5d" cx="175.62" cy="127.36" r="6.58"/>
<path fill="#172c5d" d="
  M 195.66 183.82
  L 191.14 122.59
  A 0.32 0.32 0.0 0 1 191.45 122.25
  L 207.91 122.25
  A 0.32 0.32 0.0 0 1 208.22 122.59
  L 203.66 183.83
  A 0.32 0.32 0.0 0 1 203.34 184.13
  L 195.98 184.12
  A 0.32 0.32 0.0 0 1 195.66 183.82
  Z"
/>
<path fill="#172c5d" d="
  M 250.79 180.63
  Q 249.05 162.91 247.59 146.73
  C 246.87 138.74 245.74 130.91 245.40 122.84
  Q 245.38 122.25 245.97 122.25
  L 259.25 122.25
  A 0.45 0.44 -87.6 0 1 259.69 122.74
  L 253.83 183.22
  A 0.92 0.92 0.0 0 1 253.18 184.01
  Q 252.58 184.20 251.88 184.13
  Q 251.24 184.06 251.14 183.42
  Q 250.93 182.00 250.79 180.63
  Z"
/>
<circle fill="#172c5d" cx="273.21" cy="135.91" r="5.91"/>
<path fill="#172c5d" d="
  M 170.20 135.84
  Q 177.17 137.59 182.88 135.06
  Q 183.41 134.82 183.37 135.41
  L 182.25 154.25
  A 0.23 0.23 0.0 0 1 181.98 154.47
  Q 175.28 153.29 169.50 154.54
  Q 168.89 154.67 168.85 154.04
  L 167.89 135.53
  Q 167.84 134.54 168.67 135.07
  L 169.25 135.43
  Q 169.69 135.71 170.20 135.84
  Z"
/>
<circle fill="#172c5d" cx="221.11" cy="145.29" r="5.28"/>
<path fill="#172c5d" d="
  M 266.78 143.60
  Q 272.91 145.21 279.23 143.79
  Q 279.82 143.66 279.77 144.27
  L 278.43 161.07
  Q 278.38 161.77 277.68 161.76
  L 268.57 161.68
  A 0.77 0.77 0.0 0 1 267.81 160.93
  Q 267.68 153.10 266.50 143.85
  Q 266.46 143.52 266.78 143.60
  Z"
/>
<circle fill="#172c5d" cx="235.59" cy="154.64" r="4.58"/>
<path fill="#172c5d" d="
  M 217.01 165.98
  L 215.89 152.48
  A 0.30 0.30 0.0 0 1 216.19 152.15
  L 226.10 152.24
  A 0.30 0.30 0.0 0 1 226.39 152.56
  L 225.22 165.96
  A 0.30 0.30 0.0 0 1 224.93 166.23
  L 217.31 166.26
  A 0.30 0.30 0.0 0 1 217.01 165.98
  Z"
/>
<path fill="#172c5d" d="
  M 171.63 183.84
  L 169.11 158.14
  A 0.33 0.33 0.0 0 1 169.44 157.78
  L 181.86 157.82
  A 0.33 0.33 0.0 0 1 182.18 158.18
  L 179.60 183.80
  A 0.33 0.33 0.0 0 1 179.27 184.09
  L 171.96 184.14
  A 0.33 0.33 0.0 0 1 171.63 183.84
  Z"
/>
<path fill="#172c5d" d="
  M 239.52 160.68
  L 238.92 170.26
  A 0.34 0.34 0.0 0 1 238.58 170.58
  L 232.82 170.64
  A 0.34 0.34 0.0 0 1 232.48 170.33
  L 231.59 160.58
  A 0.34 0.34 0.0 0 1 231.94 160.21
  L 239.18 160.31
  A 0.34 0.34 0.0 0 1 239.52 160.68
  Z"
/>
<path fill="#172c5d" d="
  M 269.24 183.61
  L 267.88 165.00
  A 0.53 0.53 0.0 0 1 268.41 164.43
  L 277.89 164.37
  A 0.53 0.53 0.0 0 1 278.42 164.94
  L 277.25 183.61
  A 0.53 0.53 0.0 0 1 276.72 184.11
  L 269.77 184.10
  A 0.53 0.53 0.0 0 1 269.24 183.61
  Z"
/>
<path fill="#172c5d" d="
  M 217.78 183.57
  L 216.98 168.94
  A 0.55 0.55 0.0 0 1 217.53 168.36
  L 224.79 168.36
  A 0.55 0.55 0.0 0 1 225.34 168.94
  L 224.41 183.54
  A 0.55 0.55 0.0 0 1 223.87 184.05
  L 218.33 184.09
  A 0.55 0.55 0.0 0 1 217.78 183.57
  Z"
/>
<path fill="#172c5d" d="
  M 233.28 183.61
  L 232.50 172.85
  A 0.50 0.50 0.0 0 1 232.99 172.32
  L 238.25 172.27
  A 0.50 0.50 0.0 0 1 238.75 172.81
  L 237.91 183.57
  A 0.50 0.50 0.0 0 1 237.41 184.04
  L 233.78 184.07
  A 0.50 0.50 0.0 0 1 233.28 183.61
  Z"
/>
<path fill="#385ea4" d="
  M 270.81 227.18
  C 272.39 226.08 273.76 224.81 275.68 224.21
  Q 284.17 221.57 291.77 224.90
  Q 296.71 227.07 296.74 233.57
  Q 296.79 243.56 296.57 253.26
  Q 296.54 254.44 296.67 255.72
  C 297.02 259.45 297.86 260.00 301.45 260.55
  A 1.09 1.07 -2.8 0 1 302.33 261.33
  Q 302.51 261.97 302.29 262.54
  Q 302.09 263.07 301.53 263.06
  L 292.51 263.02
  Q 291.63 263.02 291.63 262.14
  Q 291.62 249.90 291.79 239.19
  C 291.86 234.40 291.56 228.79 285.86 227.59
  C 280.62 226.48 270.37 227.27 270.25 234.78
  Q 270.06 247.13 270.39 257.42
  A 2.02 2.01 -82.2 0 0 271.79 259.27
  L 275.21 260.37
  A 0.88 0.88 0.0 0 1 275.83 261.24
  Q 275.81 262.81 274.29 262.75
  Q 267.56 262.48 260.47 262.72
  Q 259.78 262.74 259.67 262.07
  Q 259.57 261.43 259.78 260.80
  Q 259.97 260.22 260.56 260.10
  L 263.47 259.46
  A 1.98 1.98 0.0 0 0 265.02 257.59
  Q 265.67 235.18 265.16 212.11
  A 1.61 1.61 0.0 0 0 263.86 210.57
  L 260.66 209.94
  A 1.30 1.30 0.0 0 1 259.62 208.67
  L 259.62 208.40
  A 0.81 0.80 -89.3 0 1 260.43 207.60
  Q 265.33 207.64 269.98 206.59
  A 0.44 0.44 0.0 0 1 270.52 207.03
  L 270.16 226.83
  Q 270.14 227.64 270.81 227.18
  Z"
/>
<path fill="#172c5d" d="
  M 97.36 213.80
  Q 91.93 213.61 86.78 214.11
  C 84.29 214.35 84.20 217.49 83.81 219.38
  Q 83.69 219.94 83.21 220.24
  Q 82.30 220.81 81.28 220.37
  Q 80.74 220.14 80.76 219.56
  L 81.08 210.52
  Q 81.10 209.86 81.76 209.88
  Q 102.13 210.50 119.57 209.89
  Q 120.19 209.87 120.21 210.49
  L 120.50 219.61
  Q 120.53 220.50 119.64 220.49
  L 118.33 220.47
  Q 117.57 220.46 117.47 219.72
  C 117.23 218.01 116.90 214.21 114.64 214.07
  Q 109.24 213.74 103.91 213.78
  A 0.61 0.60 -0.5 0 0 103.31 214.38
  Q 103.05 236.07 103.45 256.34
  C 103.51 259.34 105.10 259.59 107.59 259.83
  Q 108.42 259.92 108.45 260.75
  L 108.48 261.71
  Q 108.50 262.68 107.54 262.68
  L 94.10 262.65
  Q 92.65 262.65 92.90 261.22
  L 92.98 260.79
  A 1.35 1.35 0.0 0 1 94.32 259.68
  C 96.15 259.71 97.83 258.80 97.87 256.81
  Q 98.29 234.53 98.00 214.44
  Q 97.99 213.82 97.36 213.80
  Z"
/>
<path fill="#315496" d="
  M 239.81 227.24
  L 236.22 227.30
  Q 235.63 227.31 235.65 226.72
  L 235.71 224.76
  A 0.76 0.76 0.0 0 1 236.50 224.02
  L 239.87 224.14
  Q 240.39 224.15 240.39 223.63
  L 240.32 215.22
  Q 240.31 214.73 240.78 214.57
  L 244.88 213.20
  A 0.37 0.36 80.9 0 1 245.36 213.55
  L 245.21 223.58
  Q 245.20 224.22 245.84 224.20
  L 256.05 223.81
  Q 256.71 223.79 256.61 224.43
  L 256.28 226.72
  Q 256.18 227.45 255.44 227.43
  L 246.22 227.26
  Q 245.17 227.24 245.16 228.29
  Q 245.10 241.50 245.15 252.55
  C 245.16 254.96 245.20 258.69 248.22 259.28
  Q 251.69 259.95 255.63 258.85
  Q 255.95 258.76 255.93 259.09
  L 255.72 262.70
  Q 255.70 263.02 255.40 263.07
  C 249.39 264.14 239.86 264.87 240.17 255.55
  Q 240.63 241.35 240.53 227.93
  Q 240.52 227.23 239.81 227.24
  Z"
/>
<path fill="#24407a" d="
  M 187.89 227.99
  Q 191.46 230.97 191.58 236.94
  Q 191.81 248.76 180.95 250.96
  Q 174.45 252.28 169.30 250.85
  Q 166.57 250.09 167.30 252.91
  Q 167.32 252.98 167.67 254.33
  Q 168.42 257.24 171.42 257.31
  Q 177.40 257.45 183.40 257.47
  C 187.65 257.48 192.18 259.55 193.39 264.01
  C 195.49 271.75 192.07 278.03 183.88 279.70
  C 175.41 281.43 159.18 281.89 157.80 270.53
  Q 156.87 262.93 164.00 259.45
  Q 164.82 259.05 164.41 258.24
  Q 162.42 254.26 163.76 249.40
  Q 164.08 248.22 162.95 247.76
  A 1.50 1.50 0.0 0 1 162.41 247.40
  C 158.69 243.71 158.50 237.28 159.73 232.45
  C 162.04 223.42 171.51 222.43 179.54 223.38
  Q 185.00 224.03 190.56 224.36
  A 1.94 1.92 27.2 0 0 191.86 223.95
  Q 193.13 222.94 194.78 223.11
  Q 195.35 223.16 195.30 223.74
  L 195.00 227.25
  Q 194.95 227.82 194.40 227.98
  C 192.53 228.54 190.03 227.75 188.08 227.54
  Q 187.24 227.45 187.89 227.99
  Z
  M 186.3358 235.4759
  A 8.50 8.50 0.0 0 0 177.9103 226.9020
  L 172.9505 226.8588
  A 8.50 8.50 0.0 0 0 164.3766 235.2843
  L 164.3442 239.0041
  A 8.50 8.50 0.0 0 0 172.7697 247.5780
  L 177.7295 247.6212
  A 8.50 8.50 0.0 0 0 186.3034 239.1957
  L 186.3358 235.4759
  Z
  M 172.80 262.13
  C 170.75 262.17 168.46 261.04 166.56 261.98
  C 160.45 264.97 161.76 273.78 168.14 275.63
  C 175.02 277.61 190.95 278.01 188.80 266.53
  C 188.27 263.69 185.18 262.38 182.59 262.26
  Q 177.81 262.05 172.80 262.13
  Z"
/>
<path fill="#4572c1" d="
  M 353.92 228.35
  C 356.82 224.21 360.49 221.98 365.88 223.58
  Q 366.43 223.75 366.46 224.32
  L 366.77 231.47
  Q 366.78 231.72 366.53 231.75
  L 364.70 231.95
  Q 364.40 231.99 364.33 231.69
  L 363.51 228.51
  Q 363.13 227.02 361.60 227.22
  C 355.72 228.00 353.42 233.34 353.32 238.77
  Q 353.14 248.69 353.43 257.98
  A 1.51 1.51 0.0 0 0 354.56 259.39
  L 358.25 260.34
  A 1.00 0.99 -1.0 0 1 358.96 261.02
  Q 359.22 261.92 358.51 262.45
  Q 358.07 262.79 357.51 262.76
  Q 350.87 262.46 343.53 262.71
  Q 342.71 262.74 342.73 261.93
  L 342.74 261.62
  A 1.54 1.53 88.4 0 1 344.15 260.12
  Q 348.27 259.78 348.31 257.50
  Q 348.59 243.56 348.37 228.99
  A 1.81 1.81 0.0 0 0 346.86 227.23
  L 343.73 226.69
  Q 342.91 226.55 342.80 225.72
  L 342.74 225.27
  Q 342.62 224.41 343.49 224.33
  L 353.30 223.52
  A 0.52 0.52 0.0 0 1 353.85 224.15
  Q 353.39 226.21 353.44 228.21
  Q 353.46 229.01 353.92 228.35
  Z"
/>
<path fill="#1e366b" d="
  M 152.6783 248.1797
  A 15.45 15.45 0.0 0 1 137.2553 263.6566
  L 133.4153 263.6633
  A 15.45 15.45 0.0 0 1 117.9383 248.2403
  L 117.9217 238.7203
  A 15.45 15.45 0.0 0 1 133.3447 223.2434
  L 137.1847 223.2367
  A 15.45 15.45 0.0 0 1 152.6617 238.6597
  L 152.6783 248.1797
  Z
  M 147.4082 238.2423
  A 11.17 11.17 0.0 0 0 136.2773 227.0333
  L 134.4173 227.0269
  A 11.17 11.17 0.0 0 0 123.2084 238.1578
  L 123.1718 248.6377
  A 11.17 11.17 0.0 0 0 134.3027 259.8467
  L 136.1627 259.8531
  A 11.17 11.17 0.0 0 0 147.3716 248.7222
  L 147.4082 238.2423
  Z"
/>
<path fill="#2b4a88" d="
  M 204.41 241.27
  C 203.91 250.77 206.58 260.10 218.37 259.51
  Q 223.67 259.24 229.47 257.21
  A 0.10 0.10 0.0 0 1 229.61 257.29
  Q 229.84 259.22 229.70 261.47
  A 0.36 0.34 84.1 0 1 229.46 261.78
  Q 221.29 264.26 212.98 263.35
  C 204.11 262.38 199.93 255.48 199.48 247.16
  C 199.14 240.90 199.40 233.19 203.45 228.30
  C 207.84 222.99 215.47 222.43 221.85 223.68
  C 230.34 225.34 231.44 232.55 231.26 239.81
  Q 231.24 240.71 230.34 240.71
  L 205.09 240.62
  Q 204.44 240.62 204.41 241.27
  Z
  M 205.63 237.60
  L 225.82 237.36
  A 0.57 0.57 0.0 0 0 226.39 236.78
  L 226.37 235.55
  A 8.94 8.94 0.0 0 0 217.32 226.72
  L 213.86 226.76
  A 8.94 8.94 0.0 0 0 205.03 235.81
  L 205.05 237.04
  A 0.57 0.57 0.0 0 0 205.63 237.60
  Z"
/>
<path fill="#3e68b3" d="
  M 311.76 241.32
  C 311.10 250.97 313.88 260.07 325.73 259.52
  Q 331.10 259.27 336.92 257.17
  A 0.09 0.09 0.0 0 1 337.04 257.24
  Q 337.40 259.89 336.95 261.60
  Q 336.94 261.67 336.87 261.69
  Q 329.76 263.96 321.86 263.51
  C 308.32 262.72 305.82 251.12 306.77 239.82
  C 307.58 230.09 311.95 223.69 322.20 223.17
  C 327.88 222.88 333.32 223.77 336.68 228.59
  C 338.99 231.90 338.48 236.17 338.53 240.02
  Q 338.54 240.71 337.85 240.71
  L 312.49 240.64
  Q 311.80 240.63 311.76 241.32
  Z
  M 312.96 237.56
  L 333.16 237.42
  A 0.63 0.63 0.0 0 0 333.78 236.78
  L 333.78 235.70
  A 9.02 9.00 89.6 0 0 324.71 226.74
  L 321.25 226.76
  A 9.02 9.00 89.6 0 0 312.32 235.84
  L 312.32 236.93
  A 0.63 0.63 0.0 0 0 312.96 237.56
  Z"
/>
<rect fill="#ffffff" x="-10.98" y="-10.36" transform="translate(175.34,237.24) rotate(0.5)" width="21.96" height="20.72" rx="8.50"/>
<path fill="#ffffff" d="
  M 205.63 237.60
  A 0.57 0.57 0.0 0 1 205.05 237.04
  L 205.03 235.81
  A 8.94 8.94 0.0 0 1 213.86 226.76
  L 217.32 226.72
  A 8.94 8.94 0.0 0 1 226.37 235.55
  L 226.39 236.78
  A 0.57 0.57 0.0 0 1 225.82 237.36
  L 205.63 237.60
  Z"
/>
<path fill="#ffffff" d="
  M 312.96 237.56
  A 0.63 0.63 0.0 0 1 312.32 236.93
  L 312.32 235.84
  A 9.02 9.00 89.6 0 1 321.25 226.76
  L 324.71 226.74
  A 9.02 9.00 89.6 0 1 333.78 235.70
  L 333.78 236.78
  A 0.63 0.63 0.0 0 1 333.16 237.42
  L 312.96 237.56
  Z"
/>
<rect fill="#ffffff" x="-12.10" y="-16.41" transform="translate(135.29,243.44) rotate(0.2)" width="24.20" height="32.82" rx="11.17"/>
<path fill="#ffffff" d="
  M 172.80 262.13
  Q 177.81 262.05 182.59 262.26
  C 185.18 262.38 188.27 263.69 188.80 266.53
  C 190.95 278.01 175.02 277.61 168.14 275.63
  C 161.76 273.78 160.45 264.97 166.56 261.98
  C 168.46 261.04 170.75 262.17 172.80 262.13
  Z"
/>
<path fill="#08214f" d="
  M 153.69 316.28
  Q 153.74 313.29 150.73 311.99
  Q 147.77 310.71 145.20 309.26
  C 140.95 306.87 139.99 301.51 144.67 299.15
  C 147.19 297.89 153.26 297.12 154.61 300.66
  Q 155.07 301.86 154.38 302.95
  Q 154.16 303.30 153.83 303.55
  Q 152.91 304.26 152.70 303.11
  Q 152.00 299.24 147.42 300.04
  Q 144.11 300.62 143.92 303.48
  C 143.52 309.72 157.60 307.71 155.87 316.42
  C 153.82 326.70 137.16 322.30 141.29 317.19
  A 0.87 0.87 0.0 0 1 142.81 317.50
  C 144.27 322.69 153.59 321.90 153.69 316.28
  Z"
/>
<path fill="#08214f" d="
  M 165.1830 322.8708
  A 9.17 7.58 95.3 0 1 158.4824 313.0398
  A 9.17 7.58 95.3 0 1 166.8770 304.6092
  A 9.17 7.58 95.3 0 1 173.5776 314.4402
  A 9.17 7.58 95.3 0 1 165.1830 322.8708
  Z
  M 166.0071 321.1700
  A 7.40 5.09 90.1 0 0 171.1100 313.7789
  A 7.40 5.09 90.1 0 0 166.0329 306.3700
  A 7.40 5.09 90.1 0 0 160.9300 313.7611
  A 7.40 5.09 90.1 0 0 166.0071 321.1700
  Z"
/>
<path fill="#08214f" d="
  M 182.22 306.62
  C 185.31 303.93 189.53 303.99 191.70 307.41
  A 0.46 0.46 0.0 0 0 192.43 307.47
  C 196.37 303.15 203.51 303.77 203.90 310.55
  Q 204.14 314.88 203.98 319.80
  A 0.96 0.96 0.0 0 0 204.53 320.70
  Q 205.25 321.04 206.14 321.01
  Q 206.66 320.99 206.65 321.51
  L 206.65 321.81
  A 0.44 0.43 -89.3 0 1 206.22 322.24
  L 199.77 322.26
  Q 199.33 322.26 199.40 321.82
  Q 199.45 321.50 199.77 321.35
  Q 200.46 321.00 201.11 320.75
  Q 201.73 320.52 201.76 319.86
  Q 201.93 315.13 201.64 311.01
  C 201.23 305.44 196.13 306.05 193.12 308.77
  Q 192.75 309.11 192.75 309.61
  L 192.82 320.03
  Q 192.82 320.49 193.27 320.60
  L 194.90 320.99
  Q 195.43 321.11 195.43 321.66
  Q 195.43 321.87 195.29 322.02
  Q 195.03 322.31 194.64 322.29
  Q 191.45 322.21 188.30 322.27
  Q 187.90 322.28 188.02 321.91
  L 188.18 321.39
  Q 188.23 321.20 188.43 321.19
  Q 189.67 321.16 190.31 320.43
  Q 190.61 320.08 190.60 319.62
  Q 190.51 315.20 190.47 311.15
  C 190.40 305.96 185.02 306.21 182.04 308.59
  A 1.43 1.41 -19.6 0 0 181.50 309.70
  L 181.50 319.98
  A 0.73 0.72 13.2 0 0 181.92 320.65
  Q 182.74 321.03 183.82 321.03
  Q 184.19 321.03 184.20 321.40
  L 184.21 321.75
  A 0.47 0.47 0.0 0 1 183.74 322.23
  L 177.70 322.26
  Q 176.26 322.27 177.34 321.31
  Q 177.93 320.78 178.69 320.65
  Q 179.24 320.56 179.25 320.00
  L 179.26 307.49
  Q 179.26 306.95 178.72 306.90
  Q 177.93 306.83 177.28 306.36
  Q 175.82 305.30 177.61 305.08
  L 180.38 304.72
  Q 181.14 304.63 181.21 305.39
  L 181.30 306.25
  Q 181.41 307.32 182.22 306.62
  Z"
/>
<path fill="#08214f" d="
  M 215.7470 322.8193
  A 9.17 7.58 95.4 0 1 209.0636 312.9767
  A 9.17 7.58 95.4 0 1 217.4730 304.5607
  A 9.17 7.58 95.4 0 1 224.1564 314.4033
  A 9.17 7.58 95.4 0 1 215.7470 322.8193
  Z
  M 216.5414 321.0899
  A 7.37 5.04 90.3 0 0 221.6199 313.7464
  A 7.37 5.04 90.3 0 0 216.6186 306.3501
  A 7.37 5.04 90.3 0 0 211.5401 313.6936
  A 7.37 5.04 90.3 0 0 216.5414 321.0899
  Z"
/>
<path fill="#0d265c" d="
  M 234.34 306.77
  C 232.65 306.09 229.01 306.67 229.01 309.24
  A 1.67 1.65 -77.3 0 0 229.95 310.74
  Q 233.09 312.24 236.03 313.51
  C 237.91 314.32 238.80 316.28 238.28 318.25
  Q 237.22 322.22 233.29 322.62
  C 231.23 322.82 226.18 322.44 226.42 319.30
  Q 226.49 318.50 227.21 318.22
  Q 227.82 317.98 228.17 318.53
  C 231.99 324.54 239.89 318.02 234.76 315.71
  C 232.75 314.80 229.53 313.94 228.03 312.28
  C 226.16 310.21 227.04 306.94 229.26 305.67
  Q 232.56 303.78 236.64 305.42
  A 1.64 1.63 12.1 0 1 237.67 307.01
  Q 237.62 308.54 236.33 309.06
  Q 235.57 309.36 235.37 308.57
  L 235.16 307.72
  Q 234.99 307.03 234.34 306.77
  Z"
/>
<path fill="#08214f" d="
  M 272.48 306.70
  Q 271.60 306.70 270.90 306.26
  Q 269.62 305.45 271.12 305.21
  L 274.26 304.72
  Q 274.91 304.61 275.02 305.26
  L 275.32 306.96
  A 0.34 0.34 0.0 0 0 275.87 307.16
  C 279.74 303.96 286.00 303.31 286.86 309.71
  Q 287.43 314.00 286.97 319.86
  Q 286.91 320.54 287.58 320.70
  L 289.13 321.07
  Q 289.45 321.14 289.45 321.48
  L 289.45 321.79
  A 0.46 0.46 0.0 0 1 288.99 322.24
  L 282.78 322.25
  Q 282.33 322.25 282.32 321.79
  L 282.32 321.48
  Q 282.32 321.42 282.38 321.41
  Q 283.65 321.14 284.55 320.50
  Q 284.93 320.23 284.93 319.77
  Q 284.89 314.58 284.68 310.27
  C 284.42 304.89 278.34 306.73 275.90 308.73
  Q 275.51 309.05 275.51 309.56
  L 275.49 319.99
  Q 275.49 320.78 276.28 320.67
  Q 277.01 320.57 277.51 321.26
  Q 278.24 322.26 277.00 322.26
  L 271.25 322.24
  A 0.53 0.53 0.0 0 1 270.74 321.86
  Q 270.70 321.73 270.73 321.59
  Q 270.79 321.29 271.08 321.20
  L 272.69 320.69
  Q 273.25 320.51 273.25 319.92
  L 273.26 307.48
  Q 273.26 306.70 272.48 306.70
  Z"
/>
<path fill="#08214f" d="
  M 298.4894 322.8497
  A 9.19 7.55 96.0 0 1 291.9414 312.9208
  A 9.19 7.55 96.0 0 1 300.4106 304.5703
  A 9.19 7.55 96.0 0 1 306.9586 314.4992
  A 9.19 7.55 96.0 0 1 298.4894 322.8497
  Z
  M 299.3038 321.1691
  A 7.40 5.09 90.9 0 0 304.5094 313.8500
  A 7.40 5.09 90.9 0 0 299.5362 306.3709
  A 7.40 5.09 90.9 0 0 294.3306 313.6900
  A 7.40 5.09 90.9 0 0 299.3038 321.1691
  Z"
/>
<path fill="#0d265c" d="
  M 263.31 316.77
  Q 263.10 311.99 263.41 307.27
  A 0.61 0.60 83.4 0 0 262.63 306.65
  Q 261.41 307.03 260.66 306.22
  A 0.60 0.59 -22.4 0 1 261.08 305.22
  L 264.93 305.10
  Q 265.52 305.08 265.52 305.68
  L 265.51 319.68
  Q 265.51 320.09 265.85 320.31
  C 266.45 320.68 267.42 320.58 267.84 320.99
  Q 268.08 321.21 268.03 321.53
  Q 267.98 321.98 267.53 322.08
  Q 265.99 322.42 264.56 322.08
  Q 264.08 321.97 263.80 321.57
  Q 263.62 321.32 263.34 321.18
  Q 262.88 320.94 262.45 321.23
  C 258.55 323.88 253.30 323.08 252.45 317.77
  Q 251.78 313.61 252.23 307.68
  A 0.86 0.85 -1.9 0 0 251.26 306.78
  Q 250.37 306.90 250.21 306.78
  Q 248.27 305.38 250.65 305.16
  Q 252.22 305.01 253.98 305.17
  Q 254.51 305.22 254.51 305.76
  L 254.49 316.71
  Q 254.49 320.54 258.31 320.53
  Q 259.02 320.53 259.72 320.52
  Q 263.47 320.52 263.31 316.77
  Z"
/>
<ellipse fill="#ffffff" cx="0.00" cy="0.00" transform="translate(166.02,313.77) rotate(90.1)" rx="7.40" ry="5.09"/>
<ellipse fill="#ffffff" cx="0.00" cy="0.00" transform="translate(216.58,313.72) rotate(90.3)" rx="7.37" ry="5.04"/>
<ellipse fill="#ffffff" cx="0.00" cy="0.00" transform="translate(299.42,313.77) rotate(90.9)" rx="7.40" ry="5.09"/>
</svg>
